<?xml version="1.0" encoding="utf-8"?>
<!-- Generator: Adobe Illustrator 25.1.0, SVG Export Plug-In . SVG Version: 6.00 Build 0)  -->
<svg version="1.1" id="Layer_1" xmlns="http://www.w3.org/2000/svg" xmlns:xlink="http://www.w3.org/1999/xlink" x="0px" y="0px"
	 viewBox="0 0 500 500" style="enable-background:new 0 0 500 500;" xml:space="preserve">
<style type="text/css">
	.st0{fill:#E0E0E0;}
	.st1{fill:none;stroke:#27DEBF;stroke-miterlimit:10;}
	.st2{fill:#37474F;}
	.st3{fill:#263238;}
	.st4{fill:#455A64;}
	.st5{fill:#27DEBF;}
	.st6{fill:#FAFAFA;}
	.st7{fill:#F5F5F5;}
	.st8{fill:#EBEBEB;}
	.st9{fill:#FFFFFF;}
	.st10{fill:#FFA8A7;}
	.st11{fill:#F0F0F0;}
	.st12{opacity:0.1;enable-background:new    ;}
	.st13{fill:#F28F8F;}
	.st14{opacity:0.4;fill:#FFFFFF;enable-background:new    ;}
	.st15{opacity:0.2;enable-background:new    ;}
	.st16{fill:#E6E6E6;}
</style>
<g id="Shadow_1_">
	<path id="Shadow_7_" class="st0" d="M252.7,365.4l62.2,35.8c0.7,0.4,1.9,0.4,2.6,0l110.1-63.6c0.7-0.4,0.7-1.1,0-1.5l-62.2-35.8
		c-0.7-0.4-1.9-0.4-2.6,0l-110.1,63.6C252,364.3,252,365,252.7,365.4z"/>
	<path id="Shadow" class="st0" d="M442.8,384c-0.2-1.6-2.1-2.4-3.2-3l-42.5-24.6c-1.9-1.1-4.2-1.1-6.1,0l-42.5,24.5
		c-1.2,0.7-3.3,2.1-3.3,3.7s1.1,2,3.2,3.2s42.2,24.4,42.2,24.4c2.1,1.2,4.8,1.2,7,0l43.5-24.9C442.5,386.1,442.9,385,442.8,384z"/>
</g>
<g id="Servers">
	<g id="Server_1_">
		<g id="XMLID_1318_">
			<path id="XMLID_1325_" class="st1" d="M297.7,257.9l10-5.8c1.2-0.7,3.1-0.7,4.3,0l62.8,36.3"/>
			<path id="XMLID_1324_" class="st1" d="M293.7,255.6l14.1-8.1c1.2-0.7,3.1-0.7,4.3,0L379,286"/>
			<path id="XMLID_1323_" class="st1" d="M383,283.7l-70.9-41c-1.2-0.7-3.1-0.7-4.3,0l-18.2,10.5"/>
			<path id="XMLID_1322_" class="st1" d="M387.1,281.4l-75-43.3c-1.2-0.7-3.1-0.7-4.3,0l-22.2,12.8"/>
		</g>
		<g id="XMLID_1245_">
			<path id="XMLID_1296_" class="st2" d="M234.6,45.8l-64.7,37.4c-1.2,0.7-2.2,2.4-2.2,3.8v177.9c0,1.4,1,3.1,2.2,3.8l64.7,37.4
				c1.2,0.7,3.1,0.7,4.3,0l64.7-37.4c1.2-0.7,2.2-2.4,2.2-3.8V86.9c0-1.4-1-3.1-2.2-3.8l-64.7-37.4
				C237.8,45.1,235.8,45.1,234.6,45.8z"/>
			<path id="XMLID_1295_" class="st3" d="M305.8,86.9v177.9c0,1.4-1,3.1-2.2,3.8l-64.7,37.4c-0.6,0.4-1.4,0.5-2.2,0.5V123.5
				c0.8,0,1.6-0.2,2.2-0.5l64.7-37.4l0.6-0.5l0.8-0.6C305.5,85.2,305.8,86.1,305.8,86.9z"/>
			<g id="XMLID_1290_">
				<path id="XMLID_1294_" class="st4" d="M178,104.4l48.5,28c1.2,0.7,2.2,2.4,2.2,3.8v18.4c0,1.4-1,1.9-2.2,1.2l-48.5-28
					c-1.2-0.7-2.2-2.4-2.2-3.8v-18.5C175.9,104.2,176.8,103.7,178,104.4z"/>
				<path id="XMLID_1293_" class="st5" d="M179.9,112.5c0,1.3,1,2.9,2.2,3.6l40.4,23.3c1.2,0.7,2.2,0.2,2.2-1.1s-1-2.9-2.2-3.6
					l-40.4-23.3C180.9,110.7,179.9,111.2,179.9,112.5z"/>
				<path id="XMLID_1292_" class="st3" d="M179.9,121.9c0,1.3,1,2.9,2.2,3.6l40.4,23.3c1.2,0.7,2.2,0.2,2.2-1.1s-1-2.9-2.2-3.6
					l-40.4-23.3C180.9,120.1,179.9,120.6,179.9,121.9z"/>
				<path id="XMLID_1291_" class="st5" d="M182.1,120.8l22.2,12.8v4.7l-22.2-12.8c-1.2-0.7-2.2-2.3-2.2-3.6
					C179.9,120.6,180.9,120.1,182.1,120.8z"/>
			</g>
			<g id="XMLID_1285_">
				<path id="XMLID_1289_" class="st4" d="M178,137.2l48.5,28c1.2,0.7,2.2,2.4,2.2,3.8v18.4c0,1.4-1,1.9-2.2,1.2l-48.5-28
					c-1.2-0.7-2.2-2.4-2.2-3.8v-18.4C175.9,137.1,176.8,136.5,178,137.2z"/>
				<path id="XMLID_1288_" class="st5" d="M179.9,145.3c0,1.3,1,2.9,2.2,3.6l40.4,23.3c1.2,0.7,2.2,0.2,2.2-1.1s-1-2.9-2.2-3.6
					l-40.4-23.3C180.9,143.6,179.9,144.1,179.9,145.3z"/>
				<path id="XMLID_1287_" class="st3" d="M179.9,154.7c0,1.3,1,2.9,2.2,3.6l40.4,23.3c1.2,0.7,2.2,0.2,2.2-1.1s-1-2.9-2.2-3.6
					l-40.4-23.3C180.9,152.9,179.9,153.4,179.9,154.7z"/>
				<path id="XMLID_1286_" class="st5" d="M182.1,153.6l34.4,19.9v4.7l-34.4-19.9c-1.2-0.7-2.2-2.3-2.2-3.6S180.9,152.9,182.1,153.6
					z"/>
			</g>
			<g id="XMLID_1280_">
				<path id="XMLID_1284_" class="st4" d="M178,170l48.5,28c1.2,0.7,2.2,2.4,2.2,3.8v18.4c0,1.4-1,1.9-2.2,1.2l-48.5-28
					c-1.2-0.7-2.2-2.4-2.2-3.8v-18.4C175.9,169.9,176.8,169.4,178,170z"/>
				<path id="XMLID_1283_" class="st5" d="M179.9,178.2c0,1.3,1,2.9,2.2,3.6l40.4,23.3c1.2,0.7,2.2,0.2,2.2-1.1s-1-2.9-2.2-3.6
					l-40.4-23.3C180.9,176.4,179.9,176.9,179.9,178.2z"/>
				<path id="XMLID_1282_" class="st3" d="M179.9,187.6c0,1.3,1,2.9,2.2,3.6l40.4,23.3c1.2,0.7,2.2,0.2,2.2-1.1s-1-2.9-2.2-3.6
					l-40.4-23.3C180.9,185.8,179.9,186.3,179.9,187.6z"/>
				<path id="XMLID_1281_" class="st5" d="M182.1,186.5l14.1,8.1v4.7l-14.1-8.1c-1.2-0.7-2.2-2.3-2.2-3.6S180.9,185.8,182.1,186.5z"
					/>
			</g>
			<g id="XMLID_1275_">
				<path id="XMLID_1279_" class="st4" d="M178,202.9l48.5,28c1.2,0.7,2.2,2.4,2.2,3.8v18.4c0,1.4-1,1.9-2.2,1.2l-48.5-28
					c-1.2-0.7-2.2-2.4-2.2-3.8v-18.4C175.9,202.8,176.8,202.2,178,202.9z"/>
				<path id="XMLID_1278_" class="st5" d="M179.9,211c0,1.3,1,2.9,2.2,3.6l40.4,23.3c1.2,0.7,2.2,0.2,2.2-1.1s-1-2.9-2.2-3.6
					l-40.4-23.3C180.9,209.2,179.9,209.7,179.9,211z"/>
				<path id="XMLID_1277_" class="st3" d="M179.9,220.4c0,1.3,1,2.9,2.2,3.6l40.4,23.3c1.2,0.7,2.2,0.2,2.2-1.1s-1-2.9-2.2-3.6
					l-40.4-23.3C180.9,218.6,179.9,219.1,179.9,220.4z"/>
				<path id="XMLID_1276_" class="st5" d="M182.1,219.3l22.2,12.8v4.7L182.1,224c-1.2-0.7-2.2-2.3-2.2-3.6S180.9,218.6,182.1,219.3z
					"/>
			</g>
			<g id="XMLID_1270_">
				<path id="XMLID_1274_" class="st4" d="M178,235.7l48.5,28c1.2,0.7,2.2,2.4,2.2,3.8v18.5c0,1.4-1,1.9-2.2,1.2l-48.5-28
					c-1.2-0.7-2.2-2.4-2.2-3.8V237C175.9,235.6,176.8,235,178,235.7z"/>
				<path id="XMLID_1273_" class="st5" d="M179.9,243.8c0,1.3,1,2.9,2.2,3.6l40.4,23.3c1.2,0.7,2.2,0.2,2.2-1.1c0-1.3-1-2.9-2.2-3.6
					l-40.4-23.3C180.9,242.1,179.9,242.6,179.9,243.8z"/>
				<path id="XMLID_1272_" class="st3" d="M179.9,253.2c0,1.3,1,2.9,2.2,3.6l40.4,23.3c1.2,0.7,2.2,0.2,2.2-1.1c0-1.3-1-2.9-2.2-3.6
					l-40.4-23.3C180.9,251.4,179.9,251.9,179.9,253.2z"/>
				<path id="XMLID_1271_" class="st5" d="M182.1,252.1l30.3,17.5v4.7l-30.3-17.5c-1.2-0.7-2.2-2.3-2.2-3.6S180.9,251.4,182.1,252.1
					z"/>
			</g>
			<g id="XMLID_1255_">
				<path id="XMLID_1269_" class="st2" d="M246.9,134.8c2.2-1.3,4.1-0.1,4.1,2.6v107.3c0,2.8-1.8,6.1-4.1,7.4
					c-2.2,1.3-4.1,0.1-4.1-2.6V142.2C242.9,139.4,244.7,136.1,246.9,134.8z"/>
				<path id="XMLID_1268_" class="st3" d="M246.9,249.7c1.1-0.6,2-2.3,2-3.7V138.5c0-1.4-0.9-2-2-1.3s-2,2.3-2,3.7v107.6
					C244.9,249.8,245.8,250.3,246.9,249.7z"/>
				<path id="XMLID_1267_" class="st5" d="M246.9,249.7c1.1-0.6,2-2.3,2-3.7v-51.4l-4.1,2.4v51.4
					C244.9,249.8,245.8,250.3,246.9,249.7z"/>
				<path id="XMLID_1266_" class="st2" d="M259.1,127.8c2.2-1.3,4.1-0.1,4.1,2.7v107.3c0,2.8-1.8,6.1-4.1,7.4
					c-2.2,1.3-4.1,0.1-4.1-2.6V135.1C255.1,132.4,256.9,129.1,259.1,127.8z"/>
				<path id="XMLID_1265_" class="st5" d="M259.1,242.7c1.1-0.6,2-2.3,2-3.7V131.4c0-1.4-0.9-2-2-1.3s-2,2.3-2,3.7v107.6
					C257.1,242.7,258,243.3,259.1,242.7z"/>
				<path id="XMLID_1264_" class="st2" d="M271.3,120.7c2.2-1.3,4.1-0.1,4.1,2.7v107.3c0,2.8-1.8,6.1-4.1,7.4s-4.1,0.1-4.1-2.6
					V128.1C267.2,125.3,269.1,122,271.3,120.7z"/>
				<path id="XMLID_1263_" class="st3" d="M271.3,235.6c1.1-0.6,2-2.3,2-3.7V124.4c0-1.4-0.9-2-2-1.3s-2,2.3-2,3.7v107.6
					C269.3,235.7,270.2,236.3,271.3,235.6z"/>
				<path id="XMLID_1262_" class="st5" d="M271.3,235.6c1.1-0.6,2-2.3,2-3.7v-83.1l-4.1,2.4v83.1
					C269.3,235.7,270.2,236.3,271.3,235.6z"/>
				<path id="XMLID_1261_" class="st2" d="M283.5,113.7c2.2-1.3,4.1-0.1,4.1,2.7v107.3c0,2.8-1.8,6.1-4.1,7.4s-4.1,0.1-4.1-2.6V121
					C279.4,118.3,281.2,115,283.5,113.7z"/>
				<path id="XMLID_1260_" class="st3" d="M283.5,228.6c1.1-0.6,2-2.3,2-3.7V117.3c0-1.4-0.9-2-2-1.3c-1.1,0.7-2,2.3-2,3.7v107.6
					C281.5,228.6,282.4,229.2,283.5,228.6z"/>
				<path id="XMLID_1259_" class="st5" d="M283.5,228.6c1.1-0.6,2-2.3,2-3.7v-18.2l-4.1,2.4v18.2
					C281.5,228.6,282.4,229.2,283.5,228.6z"/>
				<path id="XMLID_1258_" class="st2" d="M295.7,106.7c2.2-1.3,4.1-0.1,4.1,2.7v107.3c0,2.8-1.8,6.1-4.1,7.4s-4.1,0.1-4.1-2.6V114
					C291.6,111.2,293.4,108,295.7,106.7z"/>
				<path id="XMLID_1257_" class="st3" d="M295.7,221.6c1.1-0.6,2-2.3,2-3.7V110.3c0-1.4-0.9-2-2-1.3s-2,2.3-2,3.7v107.6
					C293.6,221.6,294.6,222.2,295.7,221.6z"/>
				<path id="XMLID_1256_" class="st5" d="M295.7,221.6c1.1-0.6,2-2.3,2-3.7v-56.1l-4.1,2.4v56.1
					C293.6,221.6,294.6,222.2,295.7,221.6z"/>
			</g>
			<g id="XMLID_1247_">
				<path id="XMLID_1254_" class="st2" d="M244.6,265.1l53.4-30.8c1-0.6,1.7-0.1,1.7,1v19.4c0,1.1-0.8,2.5-1.7,3l-53.4,30.8
					c-1,0.5-1.7,0.1-1.7-1v-19.5C242.9,267,243.6,265.7,244.6,265.1z"/>
				<g id="XMLID_1251_">
					<path id="XMLID_1253_" class="st3" d="M246.8,270.9c0,1.3,1,1.8,2.2,1.1l44.7-25.8c1.2-0.7,2.2-2.3,2.2-3.6s-1-1.8-2.2-1.1
						L249,267.3C247.8,268,246.8,269.6,246.8,270.9z"/>
					<path id="XMLID_1252_" class="st5" d="M246.8,270.9c0,1.3,1,1.8,2.2,1.1l32.5-18.8v-4.7L249,267.3
						C247.8,268,246.8,269.6,246.8,270.9z"/>
				</g>
				<g id="XMLID_1248_">
					<path id="XMLID_1250_" class="st3" d="M246.8,280.3c0,1.3,1,1.8,2.2,1.1l44.7-25.8c1.2-0.7,2.2-2.3,2.2-3.6s-1-1.8-2.2-1.1
						L249,276.7C247.8,277.4,246.8,279,246.8,280.3z"/>
					<path id="XMLID_1249_" class="st5" d="M246.8,280.3c0,1.3,1,1.8,2.2,1.1l12.2-7v-4.7l-12.2,7
						C247.8,277.4,246.8,279,246.8,280.3z"/>
				</g>
			</g>
			<path id="XMLID_1246_" class="st4" d="M303.7,83.1L239,45.8c-1.2-0.7-3.1-0.7-4.3,0l-64.7,37.4c-1.2,0.7-1.2,1.8,0,2.5l64.7,37.4
				c1.2,0.7,3.1,0.7,4.3,0l64.7-37.4C304.9,84.9,304.9,83.8,303.7,83.1z"/>
		</g>
		<g id="XMLID_1241_">
			<path id="XMLID_1244_" class="st3" d="M235.5,114.1l-50.2-29c-0.7-0.4-1.3-1.4-1.3-2.2v-1.7c0-0.8,0.6-1.8,1.3-2.2l50.2-29
				c0.7-0.4,1.9-0.4,2.6,0l50.2,29c0.7,0.4,1.3,1.4,1.3,2.2v1.7c0,0.8-0.6,1.8-1.3,2.2l-50.2,29
				C237.4,114.5,236.2,114.5,235.5,114.1z"/>
			<path id="XMLID_1243_" class="st4" d="M185.3,80.4l50.2,29c0.7,0.4,1.9,0.4,2.6,0l50.2-29c0.7-0.4,0.7-1.1,0-1.5l-50.2-28
				c-0.7-0.4-1.9-0.4-2.6,0l-50.2,28C184.6,79.3,184.6,80,185.3,80.4z"/>
			<path id="XMLID_1242_" class="st2" d="M236.8,109.7v4.7c-0.5,0-0.9-0.1-1.3-0.3l-50.2-29c-0.7-0.4-1.3-1.4-1.3-2.2v-1.7
				c0-0.7,0.4-1.6,1.1-2.1c-0.5,0.4-0.4,1,0.2,1.3l50.2,29C235.9,109.6,236.3,109.7,236.8,109.7z"/>
		</g>
		<g id="XMLID_1102_">
			<path id="XMLID_1240_" class="st3" d="M235.5,100l-34-19.6c-0.7-0.4-1.3-1.4-1.3-2.2v-1.7c0-0.8,0.6-1.8,1.3-2.2l21.8-12.6
				c0.7-0.4,1.7-1.3,2.2-2l10.4-14c0.5-0.7,1.5-0.9,2.2-0.5l34,19.6c0.7,0.4,1.3,1.4,1.3,2.2v11.1c0,0.8-0.6,1.8-1.3,2.2l-34,19.6
				C237.4,100.4,236.2,100.4,235.5,100z"/>
			<path id="XMLID_1239_" class="st4" d="M238.1,95.3l21.8-12.6c0.4-0.2,0.8-0.5,1.1-0.8c0.4-0.4,0.8-0.8,1.1-1.1l10.4-14
				c0.5-0.7,0.3-1.5-0.4-1.9l-34-19.6c-0.7-0.4-1.7-0.2-2.2,0.5l-10.4,14c-0.5,0.7-1.3,1.6-2,2l-21.9,12.5c-0.7,0.4-0.7,1.1,0,1.5
				l34,19.6C236.2,95.8,237.4,95.8,238.1,95.3z"/>
			<path id="XMLID_1238_" class="st2" d="M272,64.8l-34-19.6c-0.7-0.4-1.7-0.2-2.2,0.5l-10.4,14c-0.3,0.3-0.6,0.7-1.1,1.1
				c0,0,36.5,21.1,36.6,21.1c0.4-0.4,0.8-0.8,1.1-1.1l10.4-14C272.9,66.1,272.8,65.3,272,64.8z"/>
			<g id="XMLID_1152_">
				<path id="XMLID_1237_" class="st5" d="M209.8,74.6c0.8-0.5,2.2-0.5,3.1,0s0.8,1.3,0,1.8c-0.8,0.5-2.2,0.5-3.1,0
					C208.9,75.8,208.9,75.1,209.8,74.6z"/>
				<path id="XMLID_1236_" class="st5" d="M215.9,78.1c0.8-0.5,2.2-0.5,3.1,0s0.8,1.3,0,1.8c-0.8,0.5-2.2,0.5-3.1,0
					S215,78.6,215.9,78.1z"/>
				<path id="XMLID_1235_" class="st3" d="M221.9,81.6c0.8-0.5,2.2-0.5,3.1,0s0.8,1.3,0,1.8c-0.8,0.5-2.2,0.5-3.1,0
					C221.1,82.9,221.1,82.1,221.9,81.6z"/>
				<path id="XMLID_1234_" class="st3" d="M228,85.1c0.8-0.5,2.2-0.5,3.1,0s0.8,1.3,0,1.8c-0.8,0.5-2.2,0.5-3.1,0
					S227.2,85.6,228,85.1z"/>
				<ellipse id="XMLID_1233_" class="st5" cx="215.9" cy="72.8" rx="2.1" ry="1.2"/>
				<path id="XMLID_1232_" class="st3" d="M220.4,75.5c0.8-0.5,2.2-0.5,3.1,0s0.8,1.3,0,1.8c-0.8,0.5-2.2,0.5-3.1,0
					C219.6,76.7,219.6,75.9,220.4,75.5z"/>
				<ellipse id="XMLID_1231_" class="st5" cx="228" cy="79.9" rx="2.1" ry="1.2"/>
				<path id="XMLID_1230_" class="st3" d="M232.6,82.5c0.8-0.5,2.2-0.5,3.1,0s0.8,1.3,0,1.8c-0.8,0.5-2.2,0.5-3.1,0
					C231.8,83.8,231.8,83,232.6,82.5z"/>
				<path id="XMLID_1229_" class="st3" d="M218.9,69.3c0.8-0.5,2.2-0.5,3.1,0s0.8,1.3,0,1.8c-0.8,0.5-2.2,0.5-3.1,0
					C218.1,70.6,218.1,69.8,218.9,69.3z"/>
				<path id="XMLID_1228_" class="st5" d="M225,72.8c0.8-0.5,2.2-0.5,3.1,0s0.8,1.3,0,1.8c-0.8,0.5-2.2,0.5-3.1,0
					C224.1,74.1,224.1,73.3,225,72.8z"/>
				<path id="XMLID_1227_" class="st3" d="M231.1,76.3c0.8-0.5,2.2-0.5,3.1,0s0.8,1.3,0,1.8c-0.8,0.5-2.2,0.5-3.1,0
					S230.2,76.8,231.1,76.3z"/>
				<path id="XMLID_1226_" class="st5" d="M234.2,88.6c0.8-0.5,2.2-0.5,3.1,0s0.8,1.3,0,1.8c-0.8,0.5-2.2,0.5-3.1,0
					C233.3,89.8,233.3,89.1,234.2,88.6z"/>
				<ellipse id="XMLID_1225_" class="st3" cx="240.3" cy="86.8" rx="2.1" ry="1.2"/>
				<path id="XMLID_1159_" class="st3" d="M237.2,79.9c0.8-0.5,2.2-0.5,3.1,0s0.8,1.3,0,1.8c-0.8,0.5-2.2,0.5-3.1,0
					C236.3,81.1,236.3,80.3,237.2,79.9z"/>
				<path id="XMLID_1158_" class="st5" d="M223.5,66.7c0.8-0.5,2.2-0.5,3.1,0s0.8,1.3,0,1.8c-0.8,0.5-2.2,0.5-3.1,0
					S222.6,67.2,223.5,66.7z"/>
				<ellipse id="XMLID_1157_" class="st3" cx="231.1" cy="71.1" rx="2.1" ry="1.2"/>
				<path id="XMLID_1156_" class="st5" d="M235.7,73.7c0.8-0.5,2.2-0.5,3.1,0s0.8,1.3,0,1.8c-0.8,0.5-2.2,0.5-3.1,0
					S234.8,74.2,235.7,73.7z"/>
				<ellipse id="XMLID_1155_" class="st3" cx="243.3" cy="78.1" rx="2.1" ry="1.2"/>
				<path id="XMLID_1154_" class="st5" d="M243.3,83.3c0.8-0.5,2.2-0.5,3.1,0s0.8,1.3,0,1.8c-0.8,0.5-2.2,0.5-3.1,0
					S242.5,83.8,243.3,83.3z"/>
				<path id="XMLID_1153_" class="st3" d="M247.9,80.7c0.8-0.5,2.2-0.5,3.1,0s0.8,1.3,0,1.8c-0.8,0.5-2.2,0.5-3.1,0
					C247,81.9,247,81.2,247.9,80.7z"/>
			</g>
			<path id="XMLID_1151_" class="st2" d="M236.9,95.7v4.7c-0.5,0-1-0.1-1.4-0.3l-34-19.6c-0.7-0.4-1.3-1.4-1.3-2.2v-1.7
				c0-0.7,0.4-1.6,1.1-2.1c-0.5,0.4-0.4,1,0.2,1.3l34,19.6C235.9,95.6,236.4,95.7,236.9,95.7z"/>
			<g id="XMLID_1103_">
				<path id="XMLID_1150_" class="st3" d="M230,59.1L230,59.1c0.4-0.5,1-0.6,1.5-0.3L261,75.8c0.5,0.3,0.6,0.9,0.3,1.3l0,0
					c-0.3,0.4-1,0.6-1.5,0.3l-29.6-17.1C229.8,60.2,229.6,59.6,230,59.1z"/>
				<path id="XMLID_1149_" class="st5" d="M230,59.1L230,59.1c0.4-0.5,1-0.6,1.5-0.3l22,12.7l-1.2,1.6l-22-12.7
					C229.8,60.2,229.6,59.6,230,59.1z"/>
				<path id="XMLID_1148_" class="st3" d="M232.4,55.8L232.4,55.8c0.4-0.5,1-0.6,1.5-0.3l29.6,17.1c0.5,0.3,0.6,0.9,0.3,1.3l0,0
					c-0.3,0.4-1,0.6-1.5,0.3l-29.6-17.1C232.2,56.9,232.1,56.3,232.4,55.8z"/>
				<path id="XMLID_1147_" class="st5" d="M232.4,55.8L232.4,55.8c0.4-0.5,1-0.6,1.5-0.3l7.4,4.2l-1.2,1.6l-7.3-4.2
					C232.2,56.9,232.1,56.3,232.4,55.8z"/>
				<path id="XMLID_1146_" class="st3" d="M234.9,52.6L234.9,52.6c0.4-0.5,1-0.6,1.5-0.3l29.6,17.1c0.5,0.3,0.6,0.9,0.3,1.3l0,0
					c-0.3,0.4-1,0.6-1.5,0.3l-29.6-17.1C234.7,53.6,234.5,53,234.9,52.6z"/>
				<path id="XMLID_1145_" class="st5" d="M234.9,52.6L234.9,52.6c0.4-0.5,1-0.6,1.5-0.4l15.4,8.9l-1.2,1.6l-15.4-8.9
					C234.7,53.6,234.5,53,234.9,52.6z"/>
				<path id="XMLID_1140_" class="st3" d="M237.3,49.3L237.3,49.3c0.4-0.5,1-0.6,1.5-0.3l29.6,17c0.5,0.3,0.6,0.9,0.3,1.3l0,0
					c-0.3,0.4-1,0.6-1.5,0.3l-29.6-17.1C237.1,50.3,237,49.7,237.3,49.3z"/>
				<path id="XMLID_1127_" class="st5" d="M237.3,49.3L237.3,49.3c0.4-0.5,1-0.6,1.5-0.3l26.8,15.5l-1.2,1.6l-26.8-15.5
					C237.1,50.3,237,49.7,237.3,49.3z"/>
			</g>
		</g>
	</g>
	<g id="Server">
		<g id="XMLID_1084_">
			<path id="XMLID_10_" class="st1" d="M184,323.6l10-5.8c1.2-0.7,3.1-0.7,4.3,0l59.5,34.4c1.5,0.9,3.3-0.2,3.3-1.9V301"/>
			<path id="XMLID_9_" class="st1" d="M179.9,321.2l14.1-8.1c1.2-0.7,3.1-0.7,4.3,0l63.6,36.7c1.5,0.9,3.3-0.2,3.3-1.9V301"/>
			<path id="XMLID_8_" class="st1" d="M175.9,318.9l18.1-10.5c1.2-0.7,3.1-0.7,4.3,0l67.7,39.1c1.5,0.9,3.3-0.2,3.3-1.9v-44.3"/>
			<path id="XMLID_7_" class="st1" d="M171.8,316.5l22.2-12.8c1.2-0.7,3.1-0.7,4.3,0l71.7,41.4c1.5,0.9,3.3-0.2,3.3-1.9v-41.9"/>
		</g>
		<g id="XMLID_1101_">
			<path id="XMLID_1098_" class="st2" d="M116.8,113.8l-64.7,37.4c-1.2,0.7-2.2,2.4-2.2,3.8v177.9c0,1.4,1,3.1,2.2,3.8l64.7,37.4
				c1.2,0.7,3.1,0.7,4.3,0l64.7-37.4c1.2-0.7,2.2-2.4,2.2-3.8V154.9c0-1.4-1-3.1-2.2-3.8l-64.7-37.4
				C119.9,113.1,118,113.1,116.8,113.8z"/>
			<path id="XMLID_1106_" class="st3" d="M188,154.9v177.9c0,1.4-1,3.1-2.2,3.8l-64.7,37.4c-0.6,0.4-1.4,0.5-2.2,0.5V191.5
				c0.8,0,1.6-0.2,2.2-0.5l64.7-37.4l0.6-0.5l0.8-0.6C187.7,153.2,188,154.1,188,154.9z"/>
			<g id="XMLID_1126_">
				<path id="XMLID_1122_" class="st4" d="M60.2,172.4l48.5,28c1.2,0.7,2.2,2.4,2.2,3.8v18.4c0,1.4-1,1.9-2.2,1.2l-48.5-28
					c-1.2-0.7-2.2-2.4-2.2-3.8v-18.4C58,172.2,59,171.7,60.2,172.4z"/>
				<path id="XMLID_1123_" class="st5" d="M62.1,180.5c0,1.3,1,2.9,2.2,3.6l40.3,23.3c1.2,0.7,2.2,0.2,2.2-1.1s-1-2.9-2.2-3.6
					l-40.3-23.3C63.1,178.7,62.1,179.2,62.1,180.5z"/>
				<path id="XMLID_1125_" class="st3" d="M62.1,189.9c0,1.3,1,2.9,2.2,3.6l40.3,23.3c1.2,0.7,2.2,0.2,2.2-1.1s-1-2.9-2.2-3.6
					l-40.3-23.3C63.1,188.1,62.1,188.6,62.1,189.9z"/>
				<path id="XMLID_1124_" class="st5" d="M64.3,188.8l22.2,12.8v4.7l-22.2-12.8c-1.2-0.7-2.2-2.3-2.2-3.6
					C62.1,188.6,63.1,188.1,64.3,188.8z"/>
			</g>
			<g id="XMLID_1128_">
				<path id="XMLID_1132_" class="st4" d="M60.2,205.2l48.5,28c1.2,0.7,2.2,2.4,2.2,3.8v18.4c0,1.4-1,1.9-2.2,1.3l-48.5-28
					c-1.2-0.7-2.2-2.4-2.2-3.8v-18.4C58,205.1,59,204.5,60.2,205.2z"/>
				<path id="XMLID_1131_" class="st5" d="M62.1,213.3c0,1.3,1,2.9,2.2,3.6l40.3,23.3c1.2,0.7,2.2,0.2,2.2-1.1s-1-2.9-2.2-3.6
					l-40.3-23.3C63.1,211.6,62.1,212.1,62.1,213.3z"/>
				<path id="XMLID_1130_" class="st3" d="M62.1,222.7c0,1.3,1,2.9,2.2,3.6l40.3,23.3c1.2,0.7,2.2,0.2,2.2-1.1s-1-2.9-2.2-3.6
					l-40.3-23.3C63.1,220.9,62.1,221.4,62.1,222.7z"/>
				<path id="XMLID_1129_" class="st5" d="M64.3,221.6l34.4,19.9v4.7l-34.4-19.9c-1.2-0.7-2.2-2.3-2.2-3.6
					C62.1,221.4,63.1,220.9,64.3,221.6z"/>
			</g>
			<g id="XMLID_1133_">
				<path id="XMLID_1214_" class="st4" d="M60.2,238l48.5,28c1.2,0.7,2.2,2.4,2.2,3.8v18.5c0,1.4-1,1.9-2.2,1.2l-48.5-28
					c-1.2-0.7-2.2-2.4-2.2-3.8v-18.4C58,237.9,59,237.4,60.2,238z"/>
				<path id="XMLID_1213_" class="st5" d="M62.1,246.2c0,1.3,1,2.9,2.2,3.6l40.3,23.3c1.2,0.7,2.2,0.2,2.2-1.1c0-1.3-1-2.9-2.2-3.6
					l-40.3-23.3C63.1,244.4,62.1,244.9,62.1,246.2z"/>
				<path id="XMLID_1212_" class="st3" d="M62.1,255.6c0,1.3,1,2.9,2.2,3.6l40.3,23.3c1.2,0.7,2.2,0.2,2.2-1.1c0-1.3-1-2.9-2.2-3.6
					l-40.3-23.3C63.1,253.8,62.1,254.3,62.1,255.6z"/>
				<path id="XMLID_1134_" class="st5" d="M64.3,254.5l14.1,8.1v4.7l-14.1-8.1c-1.2-0.7-2.2-2.3-2.2-3.6
					C62.1,254.3,63.1,253.8,64.3,254.5z"/>
			</g>
			<g id="XMLID_1215_">
				<path id="XMLID_1219_" class="st4" d="M60.2,270.9l48.5,28c1.2,0.7,2.2,2.4,2.2,3.8v18.5c0,1.4-1,1.9-2.2,1.2l-48.5-28
					c-1.2-0.7-2.2-2.4-2.2-3.8v-18.5C58,270.8,59,270.2,60.2,270.9z"/>
				<path id="XMLID_1218_" class="st5" d="M62.1,279c0,1.3,1,2.9,2.2,3.6l40.3,23.3c1.2,0.7,2.2,0.2,2.2-1.1c0-1.3-1-2.9-2.2-3.6
					l-40.3-23.3C63.1,277.2,62.1,277.7,62.1,279z"/>
				<path id="XMLID_1217_" class="st3" d="M62.1,288.4c0,1.3,1,2.9,2.2,3.6l40.3,23.3c1.2,0.7,2.2,0.2,2.2-1.1c0-1.3-1-2.9-2.2-3.6
					l-40.3-23.3C63.1,286.6,62.1,287.1,62.1,288.4z"/>
				<path id="XMLID_1216_" class="st5" d="M64.3,287.3l22.2,12.8v4.7L64.3,292c-1.2-0.7-2.2-2.3-2.2-3.6
					C62.1,287.1,63.1,286.6,64.3,287.3z"/>
			</g>
			<g id="XMLID_1220_">
				<path id="XMLID_1224_" class="st4" d="M60.2,303.7l48.5,28c1.2,0.7,2.2,2.4,2.2,3.8v18.5c0,1.4-1,1.9-2.2,1.2l-48.5-28
					c-1.2-0.7-2.2-2.4-2.2-3.8V305C58,303.6,59,303,60.2,303.7z"/>
				<path id="XMLID_1223_" class="st5" d="M62.1,311.8c0,1.3,1,2.9,2.2,3.6l40.3,23.3c1.2,0.7,2.2,0.2,2.2-1.1c0-1.3-1-2.9-2.2-3.6
					l-40.3-23.3C63.1,310.1,62.1,310.5,62.1,311.8z"/>
				<path id="XMLID_1222_" class="st3" d="M62.1,321.2c0,1.3,1,2.9,2.2,3.6l40.3,23.3c1.2,0.7,2.2,0.2,2.2-1.1c0-1.3-1-2.9-2.2-3.6
					l-40.3-23.3C63.1,319.4,62.1,319.9,62.1,321.2z"/>
				<path id="XMLID_1221_" class="st5" d="M64.3,320.1l30.3,17.5v4.7l-30.3-17.5c-1.2-0.7-2.2-2.3-2.2-3.6
					C62.1,319.9,63.1,319.4,64.3,320.1z"/>
			</g>
			<g id="XMLID_43_">
				<path id="XMLID_40_" class="st2" d="M129.1,202.8c2.2-1.3,4.1-0.1,4.1,2.6v107.3c0,2.8-1.8,6-4.1,7.4c-2.2,1.3-4.1,0.1-4.1-2.6
					V210.2C125.1,207.4,126.9,204.1,129.1,202.8z"/>
				<path id="XMLID_42_" class="st3" d="M129.1,317.7c1.1-0.6,2-2.3,2-3.7V206.4c0-1.4-0.9-2-2-1.3s-2,2.3-2,3.7v107.6
					C127.1,317.8,128,318.3,129.1,317.7z"/>
				<path id="XMLID_1091_" class="st5" d="M129.1,317.7c1.1-0.6,2-2.3,2-3.7v-51.4l-4.1,2.4v51.4C127.1,317.8,128,318.3,129.1,317.7
					z"/>
				<path id="XMLID_45_" class="st2" d="M141.3,195.8c2.2-1.3,4.1-0.1,4.1,2.6v107.3c0,2.8-1.8,6-4.1,7.4c-2.2,1.3-4.1,0.1-4.1-2.6
					V203.1C137.3,200.4,139.1,197.1,141.3,195.8z"/>
				<path id="XMLID_44_" class="st5" d="M141.3,310.7c1.1-0.6,2-2.3,2-3.7V199.4c0-1.4-0.9-2-2-1.3s-2,2.3-2,3.7v107.6
					C139.3,310.7,140.2,311.3,141.3,310.7z"/>
				<path id="XMLID_47_" class="st2" d="M153.5,188.7c2.2-1.3,4.1-0.1,4.1,2.6v107.3c0,2.8-1.8,6-4.1,7.4c-2.2,1.3-4.1,0.1-4.1-2.6
					V196.1C149.4,193.3,151.3,190,153.5,188.7z"/>
				<path id="XMLID_46_" class="st3" d="M153.5,303.6c1.1-0.6,2-2.3,2-3.7V192.4c0-1.4-0.9-2-2-1.3c-1.1,0.6-2,2.3-2,3.7v107.6
					C151.5,303.7,152.4,304.3,153.5,303.6z"/>
				<path id="XMLID_1092_" class="st5" d="M153.5,303.6c1.1-0.6,2-2.3,2-3.7v-83.1l-4.1,2.4v83.1
					C151.5,303.7,152.4,304.3,153.5,303.6z"/>
				<path id="XMLID_654_" class="st2" d="M165.7,181.7c2.2-1.3,4.1-0.1,4.1,2.6v107.3c0,2.8-1.8,6-4.1,7.4c-2.2,1.3-4.1,0.1-4.1-2.6
					V189C161.6,186.3,163.4,183,165.7,181.7z"/>
				<path id="XMLID_48_" class="st3" d="M165.7,296.6c1.1-0.6,2-2.3,2-3.7V185.3c0-1.4-0.9-2-2-1.3s-2,2.3-2,3.7v107.6
					C163.7,296.6,164.6,297.2,165.7,296.6z"/>
				<path id="XMLID_1093_" class="st5" d="M165.7,296.6c1.1-0.6,2-2.3,2-3.7v-18.2l-4.1,2.4v18.2
					C163.7,296.6,164.6,297.2,165.7,296.6z"/>
				<path id="XMLID_656_" class="st2" d="M177.9,174.7c2.2-1.3,4.1-0.1,4.1,2.6v107.3c0,2.8-1.8,6-4.1,7.4c-2.2,1.3-4.1,0.1-4.1-2.6
					V182C173.8,179.2,175.6,176,177.9,174.7z"/>
				<path id="XMLID_655_" class="st3" d="M177.9,289.5c1.1-0.6,2-2.3,2-3.7V178.3c0-1.4-0.9-2-2-1.3s-2,2.3-2,3.7v107.6
					C175.9,289.6,176.8,290.2,177.9,289.5z"/>
				<path id="XMLID_1094_" class="st5" d="M177.9,289.5c1.1-0.6,2-2.3,2-3.7v-56.1l-4.1,2.4v56.1
					C175.9,289.6,176.8,290.2,177.9,289.5z"/>
			</g>
			<g id="XMLID_1100_">
				<path id="XMLID_1086_" class="st2" d="M126.8,333.1l53.4-30.8c1-0.5,1.7-0.1,1.7,1v19.5c0,1.1-0.8,2.5-1.7,3l-53.4,30.8
					c-1,0.5-1.7,0.1-1.7-1v-19.5C125.1,335,125.8,333.7,126.8,333.1z"/>
				<g id="XMLID_39_">
					<path id="XMLID_1088_" class="st3" d="M129,338.9c0,1.3,1,1.8,2.2,1.1l44.7-25.8c1.2-0.7,2.2-2.3,2.2-3.6s-1-1.8-2.2-1.1
						l-44.7,25.8C130,336,129,337.6,129,338.9z"/>
					<path id="XMLID_1087_" class="st5" d="M129,338.9c0,1.3,1,1.8,2.2,1.1l32.5-18.8v-4.7l-32.5,18.8C130,336,129,337.6,129,338.9z
						"/>
				</g>
				<g id="XMLID_41_">
					<path id="XMLID_1090_" class="st3" d="M129,348.3c0,1.3,1,1.8,2.2,1.1l44.7-25.8c1.2-0.7,2.2-2.3,2.2-3.6s-1-1.8-2.2-1.1
						l-44.7,25.8C130,345.4,129,347,129,348.3z"/>
					<path id="XMLID_1089_" class="st5" d="M129,348.3c0,1.3,1,1.8,2.2,1.1l12.2-7v-4.7l-12.2,7C130,345.4,129,347,129,348.3z"/>
				</g>
			</g>
			<path id="XMLID_1095_" class="st4" d="M185.9,151.1l-64.7-37.4c-1.2-0.7-3.1-0.7-4.3,0l-64.7,37.4c-1.2,0.7-1.2,1.8,0,2.5
				l64.7,37.4c1.2,0.7,3.1,0.7,4.3,0l64.7-37.4C187.1,152.9,187.1,151.8,185.9,151.1z"/>
		</g>
		<g id="XMLID_1074_">
			<path id="XMLID_1096_" class="st3" d="M117.7,182.1l-50.2-29c-0.7-0.4-1.3-1.4-1.3-2.2v-1.7c0-0.8,0.6-1.8,1.3-2.2l50.2-29
				c0.7-0.4,1.9-0.4,2.6,0l50.2,29c0.7,0.4,1.3,1.4,1.3,2.2v1.7c0,0.8-0.6,1.8-1.3,2.2l-50.2,29
				C119.6,182.5,118.4,182.5,117.7,182.1z"/>
			<path id="XMLID_1097_" class="st4" d="M67.5,148.4l50.2,29c0.7,0.4,1.9,0.4,2.6,0l50.2-29c0.7-0.4,0.7-1.1,0-1.5l-50.2-28
				c-0.7-0.4-1.9-0.4-2.6,0l-50.2,28C66.8,147.3,66.8,148,67.5,148.4z"/>
			<path id="XMLID_1136_" class="st2" d="M119,177.7v4.7c-0.5,0-0.9-0.1-1.3-0.3l-50.2-29c-0.7-0.4-1.3-1.4-1.3-2.2v-1.7
				c0-0.7,0.4-1.6,1.1-2.1c-0.5,0.4-0.4,1,0.2,1.3l50.2,29C118.1,177.6,118.5,177.7,119,177.7z"/>
		</g>
		<g id="XMLID_1073_">
			<path id="XMLID_657_" class="st3" d="M117.7,168l-34-19.6c-0.7-0.4-1.3-1.4-1.3-2.2v-1.7c0-0.8,0.6-1.8,1.3-2.2l21.8-12.6
				c0.7-0.4,1.7-1.3,2.2-1.9l10.4-14c0.5-0.7,1.5-0.9,2.2-0.4l34,19.6c0.7,0.4,1.3,1.4,1.3,2.2v11.1c0,0.8-0.6,1.8-1.3,2.2l-34,19.6
				C119.6,168.4,118.4,168.4,117.7,168z"/>
			<path id="XMLID_660_" class="st4" d="M120.3,163.3l21.8-12.6c0.4-0.2,0.8-0.5,1.1-0.8c0.4-0.4,0.8-0.8,1.1-1.1l10.4-14
				c0.5-0.7,0.3-1.5-0.4-1.9l-34-19.6c-0.7-0.4-1.7-0.2-2.2,0.4l-10.4,14c-0.5,0.7-1.3,1.6-2,2l-22,12.5c-0.7,0.4-0.7,1.1,0,1.5
				l34,19.6C118.4,163.8,119.6,163.8,120.3,163.3z"/>
			<path id="XMLID_38_" class="st2" d="M154.2,132.9l-34-19.6c-0.7-0.4-1.7-0.2-2.2,0.4l-10.4,14c-0.3,0.3-0.7,0.7-1.1,1.1
				c0,0,36.6,21.1,36.6,21.1c0.4-0.4,0.8-0.8,1.1-1.1l10.4-14C155.1,134.1,155,133.3,154.2,132.9z"/>
			<g id="XMLID_52_">
				<path id="XMLID_1144_" class="st5" d="M92,142.6c0.8-0.5,2.2-0.5,3.1,0c0.8,0.5,0.8,1.3,0,1.8c-0.8,0.5-2.2,0.5-3.1,0
					C91.1,143.9,91.1,143.1,92,142.6z"/>
				<path id="XMLID_1143_" class="st5" d="M98.1,146.1c0.8-0.5,2.2-0.5,3.1,0s0.8,1.3,0,1.8s-2.2,0.5-3.1,0
					C97.2,147.4,97.2,146.6,98.1,146.1z"/>
				<path id="XMLID_1142_" class="st3" d="M104.2,149.6c0.8-0.5,2.2-0.5,3.1,0c0.8,0.5,0.8,1.3,0,1.8c-0.8,0.5-2.2,0.5-3.1,0
					C103.3,150.9,103.3,150.1,104.2,149.6z"/>
				<path id="XMLID_1141_" class="st3" d="M110.2,153.1c0.8-0.5,2.2-0.5,3.1,0s0.8,1.3,0,1.8s-2.2,0.5-3.1,0
					C109.4,154.4,109.4,153.6,110.2,153.1z"/>
				<path id="XMLID_1139_" class="st5" d="M96.5,139.9c0.8-0.5,2.2-0.5,3.1,0s0.8,1.3,0,1.8c-0.8,0.5-2.2,0.5-3.1,0
					C95.7,141.2,95.7,140.4,96.5,139.9z"/>
				<ellipse id="XMLID_1138_" class="st3" cx="104.2" cy="144.3" rx="2.2" ry="1.2"/>
				<path id="XMLID_1137_" class="st5" d="M108.7,147c0.8-0.5,2.2-0.5,3.1,0s0.8,1.3,0,1.8c-0.8,0.5-2.2,0.5-3.1,0
					C107.9,148.2,107.9,147.5,108.7,147z"/>
				<ellipse id="XMLID_1135_" class="st3" cx="116.3" cy="151.4" rx="2.2" ry="1.2"/>
				<path id="XMLID_1116_" class="st3" d="M101.1,137.3c0.8-0.5,2.2-0.5,3.1,0s0.8,1.3,0,1.8s-2.2,0.5-3.1,0
					C100.3,138.6,100.3,137.8,101.1,137.3z"/>
				<path id="XMLID_1105_" class="st5" d="M107.2,140.8c0.8-0.5,2.2-0.5,3.1,0c0.8,0.5,0.8,1.3,0,1.8c-0.8,0.5-2.2,0.5-3.1,0
					S106.3,141.3,107.2,140.8z"/>
				<path id="XMLID_1104_" class="st3" d="M113.3,144.3c0.8-0.5,2.2-0.5,3.1,0c0.8,0.5,0.8,1.3,0,1.8c-0.8,0.5-2.2,0.5-3.1,0
					C112.4,145.6,112.4,144.8,113.3,144.3z"/>
				<path id="XMLID_663_" class="st5" d="M116.4,156.6c0.8-0.5,2.2-0.5,3.1,0c0.8,0.5,0.8,1.3,0,1.8c-0.8,0.5-2.2,0.5-3.1,0
					C115.5,157.9,115.5,157.1,116.4,156.6z"/>
				<path id="XMLID_661_" class="st3" d="M120.9,153.9c0.8-0.5,2.2-0.5,3.1,0s0.8,1.3,0,1.8s-2.2,0.5-3.1,0
					C120.1,155.2,120.1,154.4,120.9,153.9z"/>
				<path id="XMLID_1068_" class="st3" d="M119.4,147.9c0.8-0.5,2.2-0.5,3.1,0c0.8,0.5,0.8,1.3,0,1.8c-0.8,0.5-2.2,0.5-3.1,0
					S118.5,148.3,119.4,147.9z"/>
				<ellipse id="XMLID_1067_" class="st5" cx="107.2" cy="135.6" rx="2.2" ry="1.2"/>
				<path id="XMLID_666_" class="st3" d="M111.8,138.2c0.8-0.5,2.2-0.5,3.1,0c0.8,0.5,0.8,1.3,0,1.8c-0.8,0.5-2.2,0.5-3.1,0
					C110.9,139.5,110.9,138.7,111.8,138.2z"/>
				<ellipse id="XMLID_664_" class="st5" cx="119.4" cy="142.6" rx="2.2" ry="1.2"/>
				<path id="XMLID_662_" class="st3" d="M123.9,145.2c0.8-0.5,2.2-0.5,3.1,0c0.8,0.5,0.8,1.3,0,1.8c-0.8,0.5-2.2,0.5-3.1,0
					C123.1,146.5,123.1,145.7,123.9,145.2z"/>
				<path id="XMLID_54_" class="st5" d="M125.5,151.3c0.8-0.5,2.2-0.5,3,0s0.8,1.3,0,1.8c-0.8,0.5-2.2,0.5-3.1,0
					C124.7,152.6,124.7,151.8,125.5,151.3z"/>
				<ellipse id="XMLID_665_" class="st3" cx="131.6" cy="149.6" rx="2.1" ry="1.2"/>
			</g>
			<path id="XMLID_667_" class="st2" d="M119.1,163.6v4.7c-0.5,0-1-0.1-1.4-0.3l-34-19.6c-0.7-0.4-1.3-1.4-1.3-2.2v-1.7
				c0-0.7,0.4-1.6,1.1-2.1c-0.5,0.4-0.4,1,0.2,1.3l34,19.6C118.1,163.6,118.6,163.7,119.1,163.6z"/>
			<g id="XMLID_1069_">
				<path id="XMLID_1082_" class="st3" d="M112.2,127.1L112.2,127.1c0.4-0.5,1-0.6,1.5-0.3l29.6,17.1c0.5,0.3,0.6,0.9,0.3,1.3l0,0
					c-0.3,0.4-1,0.6-1.5,0.3l-29.6-17.1C112,128.1,111.8,127.6,112.2,127.1z"/>
				<path id="XMLID_669_" class="st5" d="M112.2,127.1L112.2,127.1c0.4-0.5,1-0.6,1.5-0.3l22,12.7l-1.2,1.6l-22-12.7
					C112,128.1,111.8,127.6,112.2,127.1z"/>
				<path id="XMLID_1081_" class="st3" d="M114.6,123.8L114.6,123.8c0.4-0.5,1-0.6,1.5-0.3l29.6,17.1c0.5,0.3,0.6,0.9,0.3,1.3l0,0
					c-0.3,0.4-1,0.6-1.5,0.3l-29.6-17.1C114.4,124.9,114.3,124.3,114.6,123.8z"/>
				<path id="XMLID_1070_" class="st5" d="M114.6,123.8L114.6,123.8c0.4-0.5,1-0.6,1.5-0.3l7.3,4.2l-1.2,1.6l-7.3-4.2
					C114.4,124.9,114.3,124.3,114.6,123.8z"/>
				<path id="XMLID_1080_" class="st3" d="M117.1,120.6L117.1,120.6c0.4-0.5,1-0.6,1.5-0.3l29.6,17.1c0.5,0.3,0.6,0.9,0.3,1.3l0,0
					c-0.3,0.4-1,0.6-1.5,0.3l-29.6-17.1C116.9,121.6,116.7,121,117.1,120.6z"/>
				<path id="XMLID_1071_" class="st5" d="M117.1,120.6L117.1,120.6c0.4-0.5,1-0.6,1.5-0.3l15.4,8.9l-1.2,1.6l-15.4-8.9
					C116.9,121.6,116.7,121,117.1,120.6z"/>
				<path id="XMLID_1079_" class="st3" d="M119.5,117.3L119.5,117.3c0.4-0.5,1-0.6,1.5-0.3l29.6,17.1c0.5,0.3,0.6,0.9,0.3,1.3l0,0
					c-0.3,0.4-1,0.6-1.5,0.3l-29.6-17.1C119.3,118.3,119.2,117.7,119.5,117.3z"/>
				<path id="XMLID_1072_" class="st5" d="M119.5,117.3L119.5,117.3c0.4-0.5,1-0.6,1.5-0.3l26.8,15.5l-1.2,1.6l-26.8-15.5
					C119.3,118.3,119.2,117.7,119.5,117.3z"/>
			</g>
		</g>
	</g>
</g>
<g id="Desk_2_">
	<g id="Desk_3_">
		<g id="Desk_4_">
			<g id="XMLID_280_">
				<g id="XMLID_283_">
					<path id="XMLID_284_" class="st6" d="M256.5,308.8v54.8c0,0.4,0.3,0.9,0.6,1.1l52.5,30.3c0.4,0.2,0.9,0.2,1.3,0l1.8-1
						c0.4-0.2,0.6-0.7,0.6-1.1v-54.8c0-0.4-0.3-0.8-0.8-0.8L257.3,308C256.9,308,256.5,308.4,256.5,308.8z"/>
				</g>
				<g id="XMLID_281_">
					<path id="XMLID_282_" class="st7" d="M312.6,337.3h-1.5c-0.4,0-0.8,0.3-0.8,0.8v56.5c0,0.4,0.3,0.6,0.6,0.4l1.8-1
						c0.4-0.2,0.6-0.7,0.6-1.1v-54.8C313.4,337.6,313,337.3,312.6,337.3z"/>
				</g>
			</g>
			<g id="XMLID_270_">
				<g id="XMLID_273_">
					<path id="XMLID_274_" class="st0" d="M361.1,246.1v54.8c0,0.4,0.3,0.9,0.6,1.1l54.6,31.5c0.4,0.2,0.9,0.2,1.3,0l1.8-1
						c0.4-0.2,0.6-0.7,0.6-1.1v-54.8c0-0.4-0.3-0.8-0.8-0.8l-57.4-30.5C361.4,245.3,361.1,245.6,361.1,246.1z"/>
				</g>
				<g id="XMLID_271_">
					<path id="XMLID_272_" class="st8" d="M419.2,275.8h-1.5c-0.4,0-0.8,0.3-0.8,0.8V333c0,0.4,0.3,0.6,0.6,0.4l1.8-1
						c0.4-0.2,0.6-0.7,0.6-1.1v-54.8C420,276.1,419.6,275.8,419.2,275.8z"/>
				</g>
			</g>
			<g id="XMLID_261_">
				<g id="XMLID_268_">
					<path id="XMLID_269_" class="st7" d="M251.4,307.1v-0.5c0-0.8,0.6-1.8,1.3-2.2l110.1-63.6c0.7-0.4,1.9-0.4,2.6,0l58.3,33.7
						c0.7,0.4,1.3,1.4,1.3,2.2v0.5c0,0.8-0.6,1.8-1.3,2.2L313.6,343c-0.7,0.4-1.9,0.4-2.6,0l-58.3-33.7
						C252,308.9,251.4,307.9,251.4,307.1z"/>
				</g>
				<g id="XMLID_266_">
					<path id="XMLID_267_" class="st8" d="M312.3,339.8v3.5c-0.5,0-0.9-0.1-1.3-0.3l-58.3-33.7c-0.7-0.4-1.3-1.4-1.3-2.2v-0.5
						c0-0.7,0.4-1.6,1.1-2.1c-0.5,0.4-0.4,1,0.2,1.3l58.3,33.7C311.4,339.7,311.9,339.8,312.3,339.8z"/>
				</g>
				<g id="XMLID_264_">
					<path id="XMLID_265_" class="st6" d="M252.7,305.8l58.3,33.7c0.7,0.4,1.9,0.4,2.6,0l110.1-63.6c0.7-0.4,0.7-1.1,0-1.5
						l-58.3-33.7c-0.7-0.4-1.9-0.4-2.6,0l-110.1,63.6C252,304.7,252,305.4,252.7,305.8z"/>
				</g>
				<path id="XMLID_263_" class="st8" d="M346.7,282.3l33-19.1c0.6-0.3,1.5-0.3,2.1,0l10.4,6.1c0.6,0.3,0.6,0.9,0,1.2l-33,19.1
					c-0.6,0.3-1.5,0.3-2.1,0l-10.4-6.1C346.1,283.2,346.1,282.6,346.7,282.3z"/>
				<path id="XMLID_262_" class="st8" d="M352.6,270.5L352.6,270.5l-3.5-2c-0.5-0.3-0.5-0.7,0-1l27.4-15.8c0.5-0.3,0.5-0.7,0-1
					l-0.3-0.2c-0.5-0.3-1.2-0.3-1.7,0l-26.6,15.4c-0.5,0.3-0.9,0.3-0.9,0c0-0.1,0-0.3,0-0.5l1.5-7.8c0.1-0.5-0.2-1.2-0.7-1.5
					l-0.3-0.2c-0.5-0.3-1-0.1-1.1,0.5l-1.7,9.1c-0.1,0.3-0.1,0.7,0,1c0.1,0.5-0.1,1.2-0.6,1.5l-16.6,9.6c-0.5,0.3-0.5,0.7,0,1
					l0.3,0.2c0.5,0.3,1.2,0.3,1.7,0l15.9-9.2c0.5-0.3,0.9-0.5,0.9-0.5c0,0,0,0,0.1,0l5.4,3.1c0.5,0.3,1.2,0.3,1.7,0
					c2.4-1.4,8.9-5.1,11.3-6.5c0.5-0.3,0.6-0.6,0.4-0.8s-0.9-0.1-1.4,0.1l-10.2,4.9C353,270.3,352.6,270.5,352.6,270.5z"/>
			</g>
		</g>
		<g id="Device_1_">
			<g id="Keyboard_1_">
				<path id="XMLID_260_" class="st2" d="M381.7,260.7l9.9,5.7c0.6,0.3,1.1,1.1,1.1,1.8c0,0.6-0.5,1.4-1.1,1.8l-31.9,18.4
					c-0.6,0.3-1.5,0.3-2.1,0l-9.9-5.7c-0.6-0.3-1.1-1.1-1.1-1.8c0-0.6,0.5-1.4,1.1-1.8l31.9-18.4
					C380.1,260.4,381.1,260.4,381.7,260.7z"/>
				<path id="XMLID_259_" class="st3" d="M358.6,288.6c-0.4,0-0.8-0.1-1.1-0.3l-9.9-5.7c-0.6-0.3-1.1-1.1-1.1-1.8s0.5-1.4,1.1-1.8
					l1-0.6h9.9V288.6z"/>
				<path id="XMLID_258_" class="st4" d="M347.6,279.1l31.9-18.4c0.6-0.3,1.5-0.3,2.1,0l9.9,5.7c0.6,0.3,0.6,0.9,0,1.2l-31.9,18.4
					c-0.6,0.3-1.5,0.3-2.1,0l-9.9-5.7C347.1,280,347.1,279.5,347.6,279.1z"/>
				<path id="XMLID_149_" class="st5" d="M376.8,269.2l1-0.6c0,0,0-0.1,0-0.1l-1.2-0.7c0,0-0.1,0-0.2,0l-1,0.6c0,0,0,0.1,0,0.1
					l1.2,0.7C376.7,269.2,376.8,269.2,376.8,269.2z M374.8,266.9l-1,0.6c0,0,0,0.1,0,0.1l1.2,0.7c0,0,0.1,0,0.2,0l1-0.6
					c0,0,0-0.1,0-0.1l-1.2-0.7C374.9,266.9,374.9,266.9,374.8,266.9z M371.6,268.8l-1.7,1c0,0,0,0.1,0,0.1l1.2,0.7c0,0,0.1,0,0.2,0
					l1.7-1c0,0,0-0.1,0-0.1l-1.2-0.7C371.7,268.7,371.6,268.7,371.6,268.8z M373.4,267.7l-1,0.6c0,0,0,0.1,0,0.1l1.2,0.7
					c0,0,0.1,0,0.2,0l1-0.6c0,0,0-0.1,0-0.1l-1.2-0.7C373.5,267.7,373.4,267.7,373.4,267.7z M369.4,270l-1,0.6c0,0,0,0.1,0,0.1
					l1.2,0.7c0,0,0.1,0,0.2,0l1-0.6c0,0,0-0.1,0-0.1l-1.2-0.7C369.5,270,369.5,270,369.4,270z M368,270.9l-1,0.6c0,0,0,0.1,0,0.1
					l1.2,0.7c0,0,0.1,0,0.2,0l1-0.6c0,0,0-0.1,0-0.1l-1.2-0.7C368.1,270.8,368,270.8,368,270.9z M372.5,273.6l1-0.6c0,0,0-0.1,0-0.1
					l-1.2-0.7c0,0-0.1,0-0.2,0l-1,0.6c0,0,0,0.1,0,0.1l1.2,0.7C372.4,273.6,372.5,273.6,372.5,273.6z M371,274.4l1-0.6
					c0,0,0-0.1,0-0.1l-1.2-0.7c0,0-0.1,0-0.2,0l-1,0.6c0,0,0,0.1,0,0.1l1.2,0.7C370.9,274.5,371,274.5,371,274.4z M369.6,275.3
					l1-0.6c0,0,0-0.1,0-0.1l-1.2-0.7c0,0-0.1,0-0.2,0l-1,0.6c0,0,0,0.1,0,0.1l1.2,0.7C369.5,275.3,369.5,275.3,369.6,275.3z
					 M368.1,276.1l1-0.6c0,0,0-0.1,0-0.1l-1.2-0.7c0,0-0.1,0-0.2,0l-1,0.6c0,0,0,0.1,0,0.1l1.2,0.7
					C368,276.1,368.1,276.2,368.1,276.1z M375.3,270l1-0.6c0,0,0-0.1,0-0.1l-1.2-0.7c0,0-0.1,0-0.2,0l-1,0.6c0,0,0,0.1,0,0.1
					l1.2,0.7C375.2,270.1,375.3,270.1,375.3,270z M374,272.7l2.2-1.3c0,0,0-0.1,0-0.1l-2.8-1.6c0,0-0.1,0-0.2,0l-1.2,0.7
					c0,0,0,0.1,0,0.1l1.5,0.9c0,0,0,0.1,0,0.1l-0.9,0.5c0,0,0,0.1,0,0.1l1.2,0.7C373.9,272.8,374,272.8,374,272.7z M366.5,271.7
					l-1,0.6c0,0,0,0.1,0,0.1l1.2,0.7c0,0,0.1,0,0.2,0l1-0.6c0,0,0-0.1,0-0.1l-1.2-0.7C366.6,271.7,366.5,271.7,366.5,271.7z
					 M365,272.6l-1,0.6c0,0,0,0.1,0,0.1l1.2,0.7c0,0,0.1,0,0.2,0l1-0.6c0,0,0-0.1,0-0.1l-1.2-0.7C365.1,272.5,365.1,272.5,365,272.6
					z M357.7,282.1c0,0,0.1,0,0.2,0l1-0.6c0,0,0-0.1,0-0.1l-1.2-0.7c0,0-0.1,0-0.2,0l-1,0.6c0,0,0,0.1,0,0.1L357.7,282.1z
					 M353.3,279.3l-1,0.6c0,0,0,0.1,0,0.1l1.2,0.7c0,0,0.1,0,0.2,0l1-0.6c0,0,0-0.1,0-0.1l-1.2-0.7
					C353.4,279.3,353.3,279.3,353.3,279.3z M355.6,281.3c0,0,0.1,0,0.2,0l1-0.6c0,0,0-0.1,0-0.1l-1.2-0.7c0,0-0.1,0-0.2,0l-1,0.6
					c0,0,0,0.1,0,0.1L355.6,281.3z M360.3,282.6l1-0.6c0,0,0-0.1,0-0.1l-1.2-0.7c0,0-0.1,0-0.2,0l-1,0.6c0,0,0,0.1,0,0.1l1.2,0.7
					C360.2,282.6,360.2,282.6,360.3,282.6z M358.6,283.4c0,0,0.1,0,0.2,0l1-0.6c0,0,0-0.1,0-0.1l-1.2-0.7c0,0-0.1,0-0.2,0l-1,0.6
					c0,0,0,0.1,0,0.1L358.6,283.4z M354.7,278.5l-1,0.6c0,0,0,0.1,0,0.1l1.2,0.7c0,0,0.1,0,0.2,0l1-0.6c0,0,0-0.1,0-0.1l-1.2-0.7
					C354.9,278.5,354.8,278.5,354.7,278.5z M362.1,274.2l-1,0.6c0,0,0,0.1,0,0.1l1.2,0.7c0,0,0.1,0,0.2,0l1-0.6c0,0,0-0.1,0-0.1
					l-1.2-0.7C362.2,274.2,362.1,274.2,362.1,274.2z M356.2,277.6l-1,0.6c0,0,0,0.1,0,0.1l1.2,0.7c0,0,0.1,0,0.2,0l1-0.6
					c0,0,0-0.1,0-0.1l-1.2-0.7C356.3,277.6,356.2,277.6,356.2,277.6z M363.5,273.4l-1,0.6c0,0,0,0.1,0,0.1l1.2,0.7c0,0,0.1,0,0.2,0
					l1-0.6c0,0,0-0.1,0-0.1l-1.2-0.7C363.7,273.4,363.6,273.4,363.5,273.4z M360.6,275.1l-1,0.6c0,0,0,0.1,0,0.1l1.2,0.7
					c0,0,0.1,0,0.2,0l1-0.6c0,0,0-0.1,0-0.1l-1.2-0.7C360.7,275.1,360.6,275.1,360.6,275.1z M359.1,276l-1,0.6c0,0,0,0.1,0,0.1
					l1.2,0.7c0,0,0.1,0,0.2,0l1-0.6c0,0,0-0.1,0-0.1l-1.2-0.7C359.3,275.9,359.2,275.9,359.1,276z M357.7,276.8l-1,0.6
					c0,0,0,0.1,0,0.1l1.2,0.7c0,0,0.1,0,0.2,0l1-0.6c0,0,0-0.1,0-0.1l-1.2-0.7C357.8,276.8,357.7,276.8,357.7,276.8z M365.2,277.8
					l1-0.6c0,0,0-0.1,0-0.1l-1.2-0.7c0,0-0.1,0-0.2,0l-1,0.6c0,0,0,0.1,0,0.1l1.2,0.7C365.1,277.9,365.1,277.9,365.2,277.8z
					 M378.1,265l-1,0.6c0,0,0,0.1,0,0.1l1.2,0.7c0,0,0.1,0,0.2,0l1-0.6c0,0,0-0.1,0-0.1l-1.2-0.7C378.2,265,378.1,265,378.1,265z
					 M376.3,266l-1,0.6c0,0,0,0.1,0,0.1l1.2,0.7c0,0,0.1,0,0.2,0l1-0.6c0,0,0-0.1,0-0.1l-1.2-0.7C376.4,266,376.3,266,376.3,266z
					 M379.5,264.2l-1,0.6c0,0,0,0.1,0,0.1l1.2,0.7c0,0,0.1,0,0.2,0l1-0.6c0,0,0-0.1,0-0.1l-1.2-0.7
					C379.7,264.1,379.6,264.1,379.5,264.2z M371.9,272l1-0.6c0,0,0-0.1,0-0.1l-1.2-0.7c0,0-0.1,0-0.2,0l-1,0.6c0,0,0,0.1,0,0.1
					l1.2,0.7C371.8,272,371.9,272,371.9,272z M381.2,263.3c0,0-0.1,0-0.2,0l-1,0.6c0,0,0,0.1,0,0.1l1.2,0.7c0,0,0.1,0,0.2,0l1-0.6
					c0,0,0-0.1,0-0.1L381.2,263.3z M366.6,277l1-0.6c0,0,0-0.1,0-0.1l-1.2-0.7c0,0-0.1,0-0.2,0l-1,0.6c0,0,0,0.1,0,0.1l1.2,0.7
					C366.5,277,366.6,277,366.6,277z M384.6,266.6l1-0.6c0,0,0-0.1,0-0.1l-1.2-0.7c0,0-0.1,0-0.2,0l-1,0.6c0,0,0,0.1,0,0.1l1.2,0.7
					C384.5,266.6,384.6,266.6,384.6,266.6z M381.5,266.5l1-0.6c0,0,0-0.1,0-0.1l-1.2-0.7c0,0-0.1,0-0.2,0l-1,0.6c0,0,0,0.1,0,0.1
					l1.2,0.7C381.4,266.5,381.5,266.5,381.5,266.5z M382.8,264.3c0,0-0.1,0-0.2,0l-1,0.6c0,0,0,0.1,0,0.1l1.2,0.7c0,0,0.1,0,0.2,0
					l1-0.6c0,0,0-0.1,0-0.1L382.8,264.3z M383.1,264.1l2.8,1.6c0,0,0.1,0,0.2,0l1-0.6c0,0,0-0.1,0-0.1l-2.8-1.6c0,0-0.1,0-0.2,0
					L383.1,264.1C383.1,264,383.1,264.1,383.1,264.1z M379.7,266l-1,0.6c0,0,0,0.1,0,0.1l1.2,0.7c0,0,0.1,0,0.2,0l1-0.6
					c0,0,0-0.1,0-0.1l-1.2-0.7C379.9,266,379.8,266,379.7,266z M368.7,272.4l-1,0.6c0,0,0,0.1,0,0.1l1.2,0.7c0,0,0.1,0,0.2,0l1-0.6
					c0,0,0-0.1,0-0.1l-1.2-0.7C368.8,272.3,368.7,272.3,368.7,272.4z M383,267.4c0,0,0.1,0,0.2,0l1-0.6c0,0,0-0.1,0-0.1l-1.2-0.7
					c0,0-0.1,0-0.2,0l-1,0.6c0,0,0,0.1,0,0.1L383,267.4z M370.1,271.5l-1,0.6c0,0,0,0.1,0,0.1l1.2,0.7c0,0,0.1,0,0.2,0l1-0.6
					c0,0,0-0.1,0-0.1l-1.2-0.7C370.3,271.5,370.2,271.5,370.1,271.5z M359.1,281.2c0,0,0.1,0,0.2,0l1-0.6c0,0,0-0.1,0-0.1l-1.2-0.7
					c0,0-0.1,0-0.2,0l-1,0.6c0,0,0,0.1,0,0.1L359.1,281.2z M356.9,279.1l-1,0.6c0,0,0,0.1,0,0.1l1.2,0.7c0,0,0.1,0,0.2,0l1-0.6
					c0,0,0-0.1,0-0.1l-1.2-0.7C357,279.1,357,279.1,356.9,279.1z M360.8,280.4l1-0.6c0,0,0-0.1,0-0.1l-1.2-0.7c0,0-0.1,0-0.2,0
					l-1,0.6c0,0,0,0.1,0,0.1l1.2,0.7C360.7,280.4,360.7,280.4,360.8,280.4z M362.2,279.5l1-0.6c0,0,0-0.1,0-0.1l-1.2-0.7
					c0,0-0.1,0-0.2,0l-1,0.6c0,0,0,0.1,0,0.1l1.2,0.7C362.1,279.5,362.2,279.5,362.2,279.5z M363.7,278.7l1-0.6c0,0,0-0.1,0-0.1
					l-1.2-0.7c0,0-0.1,0-0.2,0l-1,0.6c0,0,0,0.1,0,0.1l1.2,0.7C363.6,278.7,363.7,278.7,363.7,278.7z M358.4,278.3l-1,0.6
					c0,0,0,0.1,0,0.1l1.2,0.7c0,0,0.1,0,0.2,0l1-0.6c0,0,0-0.1,0-0.1l-1.2-0.7C358.5,278.3,358.5,278.3,358.4,278.3z M359.9,277.4
					l-1,0.6c0,0,0,0.1,0,0.1l1.2,0.7c0,0,0.1,0,0.2,0l1-0.6c0,0,0-0.1,0-0.1l-1.2-0.7C360,277.4,359.9,277.4,359.9,277.4z
					 M365.8,274l-1,0.6c0,0,0,0.1,0,0.1l1.2,0.7c0,0,0.1,0,0.2,0l1-0.6c0,0,0-0.1,0-0.1l-1.2-0.7C365.9,274,365.8,274,365.8,274z
					 M364.3,274.9l-1,0.6c0,0,0,0.1,0,0.1l1.2,0.7c0,0,0.1,0,0.2,0l1-0.6c0,0,0-0.1,0-0.1l-1.2-0.7
					C364.4,274.9,364.3,274.9,364.3,274.9z M367.2,273.2l-1,0.6c0,0,0,0.1,0,0.1l1.2,0.7c0,0,0.1,0,0.2,0l1-0.6c0,0,0-0.1,0-0.1
					l-1.2-0.7C367.3,273.2,367.3,273.2,367.2,273.2z M361.3,276.6l-1,0.6c0,0,0,0.1,0,0.1l1.2,0.7c0,0,0.1,0,0.2,0l1-0.6
					c0,0,0-0.1,0-0.1l-1.2-0.7C361.5,276.6,361.4,276.6,361.3,276.6z M362.8,275.8l-1,0.6c0,0,0,0.1,0,0.1l1.2,0.7c0,0,0.1,0,0.2,0
					l1-0.6c0,0,0-0.1,0-0.1l-1.2-0.7C362.9,275.7,362.9,275.7,362.8,275.8z M361.7,281.7l1-0.6c0,0,0-0.1,0-0.1l-1.2-0.7
					c0,0-0.1,0-0.2,0l-1,0.6c0,0,0,0.1,0,0.1l1.2,0.7C361.6,281.8,361.7,281.8,361.7,281.7z M353.1,280.9l-1.2-0.7c0,0-0.1,0-0.2,0
					l-1,0.6c0,0,0,0.1,0,0.1l1.2,0.7c0,0,0.1,0,0.2,0L353.1,280.9C353.2,280.9,353.2,280.9,353.1,280.9z M355.3,281.5l-1.2-0.7
					c0,0-0.1,0-0.2,0l-1.5,0.9c0,0,0,0.1,0,0.1l1.2,0.7c0,0,0.1,0,0.2,0L355.3,281.5C355.4,281.6,355.4,281.5,355.3,281.5z
					 M351.3,279.6l-1.2-0.7c0,0-0.1,0-0.2,0l-1.2,0.7c0,0,0,0.1,0,0.1l1.2,0.7c0,0,0.1,0,0.2,0L351.3,279.6
					C351.4,279.6,351.4,279.6,351.3,279.6z M352.3,279c0,0,0.1,0,0.2,0l1-0.6c0,0,0-0.1,0-0.1l-1.2-0.7c0,0-0.1,0-0.2,0l-1,0.6
					c0,0,0,0.1,0,0.1L352.3,279z M357.4,282.2l-1.2-0.7c0,0-0.1,0-0.2,0l-1.9,1.1c0,0,0,0.1,0,0.1l1.2,0.7c0,0,0.1,0,0.2,0
					L357.4,282.2C357.4,282.3,357.4,282.3,357.4,282.2z M358.3,283.6l-1.2-0.7c0,0-0.1,0-0.2,0l-1.2,0.7c0,0,0,0.1,0,0.1l1.2,0.7
					c0,0,0.1,0,0.2,0L358.3,283.6C358.4,283.7,358.4,283.6,358.3,283.6z M363.2,272.7c0,0,0.1,0,0.2,0l1-0.6c0,0,0-0.1,0-0.1
					l-1.2-0.7c0,0-0.1,0-0.2,0l-1,0.6c0,0,0,0.1,0,0.1L363.2,272.7z M360.3,274.4c0,0,0.1,0,0.2,0l1-0.6c0,0,0-0.1,0-0.1l-1.2-0.7
					c0,0-0.1,0-0.2,0l-1,0.6c0,0,0,0.1,0,0.1L360.3,274.4z M353.8,278.2c0,0,0.1,0,0.2,0l1-0.6c0,0,0-0.1,0-0.1l-1.2-0.7
					c0,0-0.1,0-0.2,0l-1,0.6c0,0,0,0.1,0,0.1L353.8,278.2z M361.7,273.6c0,0,0.1,0,0.2,0l1-0.6c0,0,0-0.1,0-0.1l-1.2-0.7
					c0,0-0.1,0-0.2,0l-1,0.6c0,0,0,0.1,0,0.1L361.7,273.6z M358.8,275.3c0,0,0.1,0,0.2,0l1-0.6c0,0,0-0.1,0-0.1l-1.2-0.7
					c0,0-0.1,0-0.2,0l-1,0.6c0,0,0,0.1,0,0.1L358.8,275.3z M359.1,283.7c0,0-0.1,0-0.2,0l-1.5,0.9c0,0,0,0.1,0,0.1l1.2,0.7
					c0,0,0.1,0,0.2,0l1.5-0.9c0,0,0-0.1,0-0.1L359.1,283.7z M356.7,276.5c0,0,0.1,0,0.2,0l1-0.6c0,0,0-0.1,0-0.1l-1.2-0.7
					c0,0-0.1,0-0.2,0l-1,0.6c0,0,0,0.1,0,0.1L356.7,276.5z M355.2,277.3c0,0,0.1,0,0.2,0l1-0.6c0,0,0-0.1,0-0.1l-1.2-0.7
					c0,0-0.1,0-0.2,0l-1,0.6c0,0,0,0.1,0,0.1L355.2,277.3z M386.3,268c0,0-0.1,0-0.2,0l-2.5,1.4c0,0,0,0.1,0,0.1l1.2,0.7
					c0,0,0.1,0,0.2,0l2.5-1.4c0,0,0-0.1,0-0.1L386.3,268z M383.1,269.9c0,0-0.1,0-0.2,0l-1,0.6c0,0,0,0.1,0,0.1l1.2,0.7
					c0,0,0.1,0,0.2,0l1-0.6c0,0,0-0.1,0-0.1L383.1,269.9z M363.2,280.9l1-0.6c0,0,0-0.1,0-0.1l-1.2-0.7c0,0-0.1,0-0.2,0l-1,0.6
					c0,0,0,0.1,0,0.1l1.2,0.7C363.1,280.9,363.2,280.9,363.2,280.9z M380.2,271.6c0,0-0.1,0-0.2,0l-1,0.6c0,0,0,0.1,0,0.1l1.2,0.7
					c0,0,0.1,0,0.2,0l1-0.6c0,0,0-0.1,0-0.1L380.2,271.6z M387.8,267.2c0,0-0.1,0-0.2,0l-1,0.6c0,0,0,0.1,0,0.1l1.2,0.7
					c0,0,0.1,0,0.2,0l1-0.6c0,0,0-0.1,0-0.1L387.8,267.2z M390.4,267l-2.8-1.6c0,0-0.1,0-0.2,0l-1,0.6c0,0,0,0.1,0,0.1l2.8,1.6
					c0,0,0.1,0,0.2,0L390.4,267C390.5,267,390.5,267,390.4,267z M374.7,274.7c0,0-0.1,0-0.2,0l-1.2,0.7c0,0,0,0.1,0,0.1l1.2,0.7
					c0,0,0.1,0,0.2,0l1.2-0.7c0,0,0-0.1,0-0.1L374.7,274.7z M378.4,272.6c0,0-0.1,0-0.2,0l-1.5,0.9c0,0,0,0.1,0,0.1l1.2,0.7
					c0,0,0.1,0,0.2,0l1.5-0.9c0,0,0-0.1,0-0.1L378.4,272.6z M371.3,276.7c0,0-0.1,0-0.2,0l-8.3,4.8c0,0,0,0.1,0,0.1l1.2,0.7
					c0,0,0.1,0,0.2,0l8.3-4.8c0,0,0-0.1,0-0.1L371.3,276.7z M362.5,281.7c0,0-0.1,0-0.2,0l-1.2,0.7c0,0,0,0.1,0,0.1l1.2,0.7
					c0,0,0.1,0,0.2,0l1.2-0.7c0,0,0-0.1,0-0.1L362.5,281.7z M373,275.7c0,0-0.1,0-0.2,0l-1.2,0.7c0,0,0,0.1,0,0.1l1.2,0.7
					c0,0,0.1,0,0.2,0l1.2-0.7c0,0,0-0.1,0-0.1L373,275.7z M360.8,282.7c0,0-0.1,0-0.2,0l-1.2,0.7c0,0,0,0.1,0,0.1l1.2,0.7
					c0,0,0.1,0,0.2,0l1.2-0.7c0,0,0-0.1,0-0.1L360.8,282.7z M376.4,273.8c0,0-0.1,0-0.2,0l-1.2,0.7c0,0,0,0.1,0,0.1l1.2,0.7
					c0,0,0.1,0,0.2,0l1.2-0.7c0,0,0-0.1,0-0.1L376.4,273.8z M381.6,270.7c0,0-0.1,0-0.2,0l-1,0.6c0,0,0,0.1,0,0.1l1.2,0.7
					c0,0,0.1,0,0.2,0l1-0.6c0,0,0-0.1,0-0.1L381.6,270.7z M384.8,268.4l1-0.6c0,0,0-0.1,0-0.1l-1.2-0.7c0,0-0.1,0-0.2,0l-1,0.6
					c0,0,0,0.1,0,0.1l1.2,0.7C384.7,268.4,384.8,268.4,384.8,268.4z M378.3,268.4l1-0.6c0,0,0-0.1,0-0.1l-1.2-0.7c0,0-0.1,0-0.2,0
					l-1,0.6c0,0,0,0.1,0,0.1l1.2,0.7C378.2,268.4,378.2,268.4,378.3,268.4z M375,274.1l2.9-1.7c0,0,0-0.1,0-0.1l-1.2-0.7
					c0,0-0.1,0-0.2,0l-2.9,1.7c0,0,0,0.1,0,0.1l1.2,0.7C374.8,274.1,374.9,274.1,375,274.1z M383.2,269.2c0,0,0.1,0,0.2,0l1-0.6
					c0,0,0-0.1,0-0.1l-1.2-0.7c0,0-0.1,0-0.2,0l-1,0.6c0,0,0,0.1,0,0.1L383.2,269.2z M381.7,268.3l1-0.6c0,0,0-0.1,0-0.1l-1.2-0.7
					c0,0-0.1,0-0.2,0l-1,0.6c0,0,0,0.1,0,0.1l1.2,0.7C381.6,268.3,381.7,268.3,381.7,268.3z M373.5,275l1-0.6c0,0,0-0.1,0-0.1
					l-1.2-0.7c0,0-0.1,0-0.2,0l-1,0.6c0,0,0,0.1,0,0.1l1.2,0.7C373.4,275,373.4,275,373.5,275z M380,271.1c0,0,0.1,0,0.2,0l1-0.6
					c0,0,0-0.1,0-0.1l-1.2-0.7c0,0-0.1,0-0.2,0l-1,0.6c0,0,0,0.1,0,0.1L380,271.1z M366.1,279.2l1-0.6c0,0,0-0.1,0-0.1l-1.2-0.7
					c0,0-0.1,0-0.2,0l-1,0.6c0,0,0,0.1,0,0.1l1.2,0.7C366,279.2,366.1,279.2,366.1,279.2z M367.6,278.3l1-0.6c0,0,0-0.1,0-0.1
					l-1.2-0.7c0,0-0.1,0-0.2,0l-1,0.6c0,0,0,0.1,0,0.1l1.2,0.7C367.5,278.4,367.6,278.4,367.6,278.3z M364.7,280l1-0.6
					c0,0,0-0.1,0-0.1l-1.2-0.7c0,0-0.1,0-0.2,0l-1,0.6c0,0,0,0.1,0,0.1l1.2,0.7C364.6,280.1,364.6,280.1,364.7,280z M370.5,276.6
					l1-0.6c0,0,0-0.1,0-0.1l-1.2-0.7c0,0-0.1,0-0.2,0l-1,0.6c0,0,0,0.1,0,0.1l1.2,0.7C370.4,276.7,370.5,276.7,370.5,276.6z
					 M369.1,277.5l1-0.6c0,0,0-0.1,0-0.1l-1.2-0.7c0,0-0.1,0-0.2,0l-1,0.6c0,0,0,0.1,0,0.1l1.2,0.7C369,277.5,369,277.5,369.1,277.5
					z M372,275.8l1-0.6c0,0,0-0.1,0-0.1l-1.2-0.7c0,0-0.1,0-0.2,0l-1,0.6c0,0,0,0.1,0,0.1l1.2,0.7C371.9,275.8,372,275.8,372,275.8z
					 M378.7,263.3c0,0,0.1,0,0.2,0l1-0.6c0,0,0-0.1,0-0.1l-0.3-0.2c0,0-0.1,0-0.2,0l-1,0.6c0,0,0,0.1,0,0.1L378.7,263.3z
					 M371.5,267.9c0,0,0.1,0,0.2,0l1-0.6c0,0,0-0.1,0-0.1l-1.2-0.7c0,0-0.1,0-0.2,0l-1,0.6c0,0,0,0.1,0,0.1L371.5,267.9z
					 M374.4,266.2c0,0,0.1,0,0.2,0l1-0.6c0,0,0-0.1,0-0.1l-1.2-0.7c0,0-0.1,0-0.2,0l-1,0.6c0,0,0,0.1,0,0.1L374.4,266.2z M369.7,269
					c0,0,0.1,0,0.2,0l1-0.6c0,0,0-0.1,0-0.1l-1.2-0.7c0,0-0.1,0-0.2,0l-1,0.6c0,0,0,0.1,0,0.1L369.7,269z M373,267.1
					c0,0,0.1,0,0.2,0l1-0.6c0,0,0-0.1,0-0.1l-1.2-0.7c0,0-0.1,0-0.2,0l-1,0.6c0,0,0,0.1,0,0.1L373,267.1z M366.8,270.6
					c0,0,0.1,0,0.2,0l1-0.6c0,0,0-0.1,0-0.1l-1.2-0.7c0,0-0.1,0-0.2,0l-1,0.6c0,0,0,0.1,0,0.1L366.8,270.6z M368.2,269.8
					c0,0,0.1,0,0.2,0l1-0.6c0,0,0-0.1,0-0.1l-1.2-0.7c0,0-0.1,0-0.2,0l-1,0.6c0,0,0,0.1,0,0.1L368.2,269.8z M375.8,265
					c0,0,0.1,0,0.2,0l1-0.6c0,0,0-0.1,0-0.1l-0.3-0.2c0,0-0.1,0-0.2,0l-1,0.6c0,0,0,0.1,0,0.1L375.8,265z M380.2,262.4
					c0,0,0.1,0,0.2,0l1-0.6c0,0,0-0.1,0-0.1l-0.3-0.2c0,0-0.1,0-0.2,0l-1,0.6c0,0,0,0.1,0,0.1L380.2,262.4z M382.6,263.8
					c0,0,0.1,0,0.2,0l1-0.6c0,0,0-0.1,0-0.1l-1.2-0.7c0,0-0.1,0-0.2,0l-1,0.6c0,0,0,0.1,0,0.1L382.6,263.8z M386.3,267.5l1-0.6
					c0,0,0-0.1,0-0.1l-1.2-0.7c0,0-0.1,0-0.2,0l-1,0.6c0,0,0,0.1,0,0.1l1.2,0.7C386.2,267.6,386.3,267.6,386.3,267.5z M377.3,264.1
					c0,0,0.1,0,0.2,0l1-0.6c0,0,0-0.1,0-0.1l-0.3-0.2c0,0-0.1,0-0.2,0l-1,0.6c0,0,0,0.1,0,0.1L377.3,264.1z M365.3,271.5
					c0,0,0.1,0,0.2,0l1-0.6c0,0,0-0.1,0-0.1l-1.2-0.7c0,0-0.1,0-0.2,0l-1,0.6c0,0,0,0.1,0,0.1L365.3,271.5z"/>
			</g>
			<g id="Computer_1_">
				<g id="XMLID_145_">
					<path id="XMLID_148_" class="st4" d="M364.6,262.4l-12,6.9l-0.1,0l-4.5-2.6c-0.8-0.5-1.3-1.5-1.1-2.4l1.7-8.8l10-8.1l2,1.2
						l-1.7,8.8c-0.2,0.9,0.3,2,1.1,2.4L364.6,262.4z"/>
					<path id="XMLID_147_" class="st3" d="M352.6,269.3v2.3l-6.3-3.6c-1.2-0.7-1.9-2.3-1.7-3.6l1.9-10.1l2,1.1l-1.7,8.8
						c-0.2,0.9,0.3,2,1.1,2.4L352.6,269.3L352.6,269.3z"/>
					<polygon id="XMLID_146_" class="st2" points="364.6,262.4 352.6,269.3 352.6,271.6 364.6,264.7 					"/>
				</g>
				<g id="XMLID_140_">
					<path id="XMLID_144_" class="st4" d="M375.6,204c0.5,0.3,1,1.1,1,1.8v36.8c0,0.7-0.5,1.5-1.1,1.9L329.6,271
						c-0.6,0.3-1.5,0.4-2.1,0c-0.5-0.3-1-1.1-1-1.8v-36.8c0-0.7,0.5-1.5,1.1-1.9l45.9-26.5C374.1,203.7,375.1,203.7,375.6,204z"/>
					<path id="XMLID_143_" class="st3" d="M329.6,271c-0.6,0.3-1.5,0.4-2.1,0c-0.5-0.3-1-1.1-1-1.8v-36.8c0-0.3,0.1-0.7,0.3-1.1
						l35.7,20.6L329.6,271z"/>
					<path id="XMLID_142_" class="st2" d="M376.6,242.7v-36.8c0-0.7-0.5-1-1.1-0.6l-45.9,26.5c-0.6,0.3-1.1,1.2-1.1,1.9v36.8
						c0,0.7,0.5,1,1.1,0.6l45.9-26.5C376.1,244.2,376.6,243.4,376.6,242.7z"/>
					<path id="XMLID_141_" class="st9" d="M374,207.3l-43.6,25.1c-0.5,0.3-0.9,0.9-0.9,1.5v32.7c0,0.5,0.4,0.8,0.9,0.5l43.6-25.1
						c0.5-0.3,0.9-0.9,0.9-1.5v-32.7C374.9,207.2,374.5,207,374,207.3z"/>
				</g>
			</g>
		</g>
		<g id="Box_1_">
			<path id="XMLID_139_" class="st3" d="M313.1,326.6l-25.9-14.9c-0.7-0.4-1.3-1.4-1.3-2.2v-15.8c0-0.8,0.6-1.8,1.3-2.2l17.7-10.2
				c0.7-0.4,1.9-0.4,2.6,0l25.8,14.9c0.7,0.4,1.3,1.4,1.3,2.2l0,15.8c0,0.8-0.6,1.8-1.3,2.2l-17.7,10.2
				C315,327,313.8,327,313.1,326.6z"/>
			<path id="XMLID_138_" class="st4" d="M315.7,307.8l17.7-10.2c0.7-0.4,0.7-1.1,0-1.5l-25.8-14.9c-0.7-0.4-1.9-0.4-2.6,0
				l-17.7,10.2c-0.7,0.4-0.7,1.1,0,1.5l25.8,14.9C313.8,308.2,315,308.2,315.7,307.8z"/>
			<path id="XMLID_137_" class="st2" d="M314.4,308.1v18.8c-0.5,0-0.9-0.1-1.3-0.3l-25.8-14.9c-0.7-0.4-1.3-1.4-1.3-2.2l0-15.8
				c0-0.7,0.4-1.5,1-2c-0.4,0.4-0.3,0.9,0.3,1.2l25.9,14.9C313.4,308,313.9,308.1,314.4,308.1z"/>
			<g id="XMLID_125_">
				<path id="XMLID_136_" class="st2" d="M293.7,292.4c0.5-0.3,1.2-0.3,1.7,0l18.6,10.7c0.5,0.3,0.5,0.7,0,1s-1.2,0.3-1.7,0
					l-18.6-10.7C293.2,293.1,293.2,292.6,293.7,292.4z"/>
				<path id="XMLID_135_" class="st5" d="M293.7,292.4c0.5-0.3,1.2-0.3,1.7,0l11.3,6.5l-1.7,1l-11.3-6.5
					C293.2,293.1,293.2,292.6,293.7,292.4z"/>
				<path id="XMLID_134_" class="st2" d="M296.9,290.5c0.5-0.3,1.2-0.3,1.7,0l18.6,10.7c0.5,0.3,0.5,0.7,0,1s-1.2,0.3-1.7,0
					L297,291.5C296.5,291.2,296.5,290.8,296.9,290.5z"/>
				<path id="XMLID_133_" class="st5" d="M296.9,290.5c0.5-0.3,1.2-0.3,1.7,0l1.5,0.9l-1.7,1l-1.5-0.9
					C296.5,291.2,296.5,290.8,296.9,290.5z"/>
				<path id="XMLID_132_" class="st2" d="M300.1,288.6c0.5-0.3,1.2-0.3,1.7,0l18.6,10.7c0.5,0.3,0.5,0.7,0,1s-1.2,0.3-1.7,0
					l-18.6-10.7C299.7,289.4,299.7,288.9,300.1,288.6z"/>
				<path id="XMLID_131_" class="st5" d="M300.1,288.6c0.5-0.3,1.2-0.3,1.7,0l6.6,3.8l-1.7,1l-6.6-3.8
					C299.7,289.4,299.7,288.9,300.1,288.6z"/>
				<g id="XMLID_126_">
					<path id="XMLID_130_" class="st2" d="M303.4,286.8c0.5-0.3,1.2-0.3,1.7,0l18.6,10.7c0.5,0.3,0.5,0.7,0,1s-1.2,0.3-1.7,0
						l-18.6-10.7C302.9,287.5,302.9,287.1,303.4,286.8z"/>
					<path id="XMLID_129_" class="st5" d="M303.4,286.8c0.5-0.3,1.2-0.3,1.7,0l13.3,7.7l-1.7,1l-13.3-7.7
						C302.9,287.5,302.9,287.1,303.4,286.8z"/>
					<path id="XMLID_128_" class="st2" d="M306.6,284.9c0.5-0.3,1.2-0.3,1.7,0l18.6,10.7c0.5,0.3,0.5,0.7,0,1s-1.2,0.3-1.7,0
						l-18.6-10.7C306.1,285.6,306.1,285.2,306.6,284.9z"/>
					<path id="XMLID_127_" class="st5" d="M306.6,284.9c0.5-0.3,1.2-0.3,1.7,0l16.7,9.7l-1.7,1l-16.7-9.7
						C306.1,285.6,306.1,285.2,306.6,284.9z"/>
				</g>
			</g>
			<g id="XMLID_118_">
				<g id="XMLID_122_">
					<path id="XMLID_124_" class="st2" d="M316.4,321.5v-3.2c0-0.8,0.5-1.8,1-2.1c0.6-0.3,1,0.1,1,0.9v3.2c0,0.8-0.5,1.8-1,2.1
						C316.9,322.7,316.4,322.3,316.4,321.5z"/>
					<path id="XMLID_123_" class="st5" d="M317.5,316.7c-0.4,0.2-0.7,0.7-0.7,1.2c0,0.4,0.3,0.6,0.7,0.4s0.7-0.7,0.7-1.2
						S317.8,316.4,317.5,316.7z"/>
				</g>
				<g id="XMLID_119_">
					<path id="XMLID_121_" class="st2" d="M319.6,319.6v-3.2c0-0.8,0.5-1.8,1-2.1c0.6-0.3,1,0.1,1,0.9v3.2c0,0.8-0.5,1.8-1,2.1
						C320.1,320.9,319.6,320.4,319.6,319.6z"/>
					<path id="XMLID_120_" class="st5" d="M320.6,318.5c-0.4,0.2-0.7,0.7-0.7,1.2c0,0.4,0.3,0.6,0.7,0.4s0.7-0.7,0.7-1.2
						C321.3,318.5,321,318.3,320.6,318.5z"/>
				</g>
			</g>
		</g>
	</g>
</g>
<g id="Character">
	<g id="XMLID_1317_">
		<g id="Legs">
			<g id="XMLID_1365_">
				<g id="XMLID_1370_">
					<path id="XMLID_1389_" class="st3" d="M379.5,359.1c0.4,0.5,0.5,1.7,0.8,3.2c0.4,1.6,0.5,2.8,0.3,3.6c-0.3,0.8-2,2.5-4,3.1
						c-2.1,0.6-4.6,0.1-7.1-1.4c-2.5-1.5-4.3-3.3-7.9-4.3s-5.3-1.8-7-3.2c-2-1.6-3.2-3.9,0.5-4.9c3.8-1,10.5,0.5,17.9,0.9
						L379.5,359.1z"/>
				</g>
				<g id="XMLID_1368_">
					<path id="XMLID_1369_" class="st10" d="M379.5,354.5v5.5c0,0-0.8,1.8-3.9,2c-1.9,0.1-3.3-0.8-4.2-2v-5.5H379.5z"/>
				</g>
				<g id="XMLID_1366_">
					<path id="XMLID_1367_" class="st2" d="M368.9,318.2c0,6.9,1.9,38.7,1.9,38.7s2.8,3.6,8.9,0l2.1-35.3L368.9,318.2z"/>
				</g>
			</g>
			<g id="XMLID_1353_">
				<g id="XMLID_1356_">
					<path id="XMLID_28704_" class="st3" d="M362.8,369.9c0.4,0.5,0.5,1.7,0.8,3.2c0.4,1.6,0.5,2.8,0.3,3.6c-0.3,0.8-2,2.5-4,3.1
						c-2.1,0.6-4.6,0.1-7.1-1.4c-2.5-1.5-4.3-3.3-7.9-4.3c-3.5-1-5.3-1.8-7-3.2c-2-1.6-3.2-3.9,0.5-4.9c3.8-1,10.5,0.5,17.9,0.9
						L362.8,369.9z"/>
				</g>
				<g id="XMLID_1355_">
					<path id="XMLID_28702_" class="st10" d="M362.8,365.3v5.5c0,0-0.8,1.8-3.9,2c-1.9,0.1-3.3-0.8-4.2-2v-5.5H362.8z"/>
				</g>
				<g id="XMLID_1354_">
					<path id="XMLID_28700_" class="st2" d="M352.3,329c0,6.9,1.9,38.7,1.9,38.7s2.8,3.6,8.9,0l2.1-35.3L352.3,329z"/>
				</g>
			</g>
		</g>
		<g id="Chair">
			<g id="XMLID_42935_">
				<g id="XMLID_42937_">
					<g id="XMLID_42942_">
						<g id="XMLID_42944_">
							<g id="XMLID_42975_">
								<path id="XMLID_42977_" class="st4" d="M373.7,394.4c0,0.3,0,0.5,0.1,0.8c0.1,0.5,0.4,0.9,0.7,1.1l0,0
									c0.5,0.4,1.3,0.3,2.1-0.2c1.6-0.9,3-3.2,3-5.1c0-0.9-0.3-1.5-0.8-1.9l0,0l-0.1-0.1h0c-0.4-0.2-0.8-0.2-1.3,0
									c-0.2,0.1-0.5,0.2-0.7,0.3C375,390.3,373.7,392.6,373.7,394.4z"/>
								<path id="XMLID_42976_" class="st3" d="M374.5,388.1c0.5-0.3,0.9-0.4,1.3-0.4c0.3,0,0.6,0.1,0.8,0.2l0.1,0l1.9,1.1
									c-0.4-0.2-0.8-0.2-1.3,0c-0.2,0.1-0.5,0.2-0.7,0.3c-1.6,0.9-3,3.2-3,5.1c0,0.3,0,0.5,0.1,0.8c0.1,0.5,0.4,0.9,0.7,1.1
									l-2-1.1l0,0l-0.2-0.1c0,0,0,0,0,0c-0.5-0.3-0.7-1-0.7-1.8C371.5,391.3,372.9,389,374.5,388.1z"/>
							</g>
							<g id="XMLID_42972_">
								<path id="XMLID_42974_" class="st4" d="M405.6,377.3c0,0.3,0,0.5,0.1,0.8c0.1,0.5,0.4,0.9,0.7,1.1l0,0
									c0.5,0.4,1.3,0.3,2.1-0.2c1.6-0.9,3-3.2,3-5.1c0-0.9-0.3-1.5-0.8-1.9l0,0l-0.1-0.1h0c-0.4-0.2-0.8-0.2-1.3,0
									c-0.2,0.1-0.5,0.2-0.7,0.3C407,373.1,405.6,375.4,405.6,377.3z"/>
								<path id="XMLID_42973_" class="st3" d="M406.4,370.9c0.5-0.3,0.9-0.4,1.3-0.4c0.3,0,0.6,0.1,0.8,0.2l0.1,0l1.9,1.1
									c-0.4-0.2-0.8-0.2-1.3,0c-0.2,0.1-0.5,0.2-0.7,0.3c-1.6,0.9-3,3.2-3,5.1c0,0.3,0,0.5,0.1,0.8c0.1,0.5,0.4,0.9,0.7,1.1
									l-2-1.1l0,0l-0.2-0.1c0,0,0,0,0,0c-0.5-0.3-0.7-1-0.7-1.8C403.5,374.1,404.8,371.9,406.4,370.9z"/>
							</g>
							<g id="XMLID_42969_">
								<path id="XMLID_42971_" class="st4" d="M399.9,401.1c0,0.3,0,0.5-0.1,0.8c-0.1,0.5-0.4,0.9-0.7,1.1l0,0
									c-0.5,0.4-1.3,0.3-2.1-0.2c-1.6-0.9-3-3.2-3-5.1c0-0.9,0.3-1.5,0.8-1.9l0,0l0.1-0.1h0c0.4-0.2,0.8-0.2,1.3,0
									c0.2,0.1,0.5,0.2,0.7,0.3C398.6,397,399.9,399.3,399.9,401.1z"/>
								<path id="XMLID_42970_" class="st3" d="M399.1,394.8c-0.5-0.3-0.9-0.4-1.3-0.4c-0.3,0-0.6,0.1-0.8,0.2l-0.1,0l-1.9,1.1
									c0.4-0.2,0.8-0.2,1.3,0c0.2,0.1,0.5,0.2,0.7,0.3c1.6,0.9,3,3.2,3,5.1c0,0.3,0,0.5-0.1,0.8c-0.1,0.5-0.4,0.9-0.7,1.1l2-1.1
									l0,0l0.2-0.1c0,0,0,0,0,0c0.5-0.3,0.7-1,0.7-1.8C402.1,398,400.8,395.7,399.1,394.8z"/>
							</g>
							<g id="XMLID_42966_">
								<path id="XMLID_42968_" class="st4" d="M420.7,391c0,0.3,0,0.5-0.1,0.8c-0.1,0.5-0.4,0.9-0.7,1.1l0,0
									c-0.5,0.4-1.3,0.3-2.1-0.2c-1.6-0.9-3-3.2-3-5.1c0-0.9,0.3-1.5,0.8-1.9l0,0l0.1-0.1h0c0.4-0.2,0.8-0.2,1.3,0
									c0.2,0.1,0.5,0.2,0.7,0.3C419.3,386.8,420.7,389.1,420.7,391z"/>
								<path id="XMLID_42967_" class="st3" d="M419.9,384.6c-0.5-0.3-0.9-0.4-1.3-0.4c-0.3,0-0.6,0.1-0.8,0.2l-0.1,0l-1.9,1.1
									c0.4-0.2,0.8-0.2,1.3,0c0.2,0.1,0.5,0.2,0.7,0.3c1.6,0.9,3,3.2,3,5.1c0,0.3,0,0.5-0.1,0.8c-0.1,0.5-0.4,0.9-0.7,1.1l2-1.1
									l0,0l0.2-0.1c0,0,0,0,0,0c0.5-0.3,0.7-1,0.7-1.8C422.8,387.9,421.5,385.6,419.9,384.6z"/>
							</g>
							<g id="XMLID_42963_">
								<path id="XMLID_42965_" class="st4" d="M380.6,378.5c0,0.3,0,0.5-0.1,0.8c-0.1,0.5-0.4,0.9-0.7,1.1l0,0
									c-0.5,0.4-1.3,0.3-2.1-0.2c-1.6-0.9-3-3.2-3-5.1c0-0.9,0.3-1.5,0.8-1.9l0,0l0.1-0.1h0c0.4-0.2,0.8-0.2,1.3,0
									c0.2,0.1,0.5,0.2,0.7,0.3C379.3,374.4,380.6,376.7,380.6,378.5z"/>
								<path id="XMLID_42964_" class="st3" d="M379.8,372.2c-0.5-0.3-0.9-0.4-1.3-0.4c-0.3,0-0.6,0.1-0.8,0.2l-0.1,0l-1.9,1.1
									c0.4-0.2,0.8-0.2,1.3,0c0.2,0.1,0.5,0.2,0.7,0.3c1.6,0.9,3,3.2,3,5.1c0,0.3,0,0.5-0.1,0.8c-0.1,0.5-0.4,0.9-0.7,1.1l2-1.1
									l0,0l0.2-0.1c0,0,0,0,0,0c0.5-0.3,0.7-1,0.7-1.8C382.7,375.4,381.4,373.1,379.8,372.2z"/>
							</g>
							<g id="XMLID_42960_">
								<polygon id="XMLID_42962_" class="st7" points="398.2,372.3 408.8,369.3 408.8,371.5 398.2,377.6 								"/>
								<polygon id="XMLID_42961_" class="st6" points="398.2,372.3 397.2,371.7 407.8,368.8 408.8,369.3 								"/>
							</g>
							<g id="XMLID_42957_">
								<polygon id="XMLID_42959_" class="st7" points="393.6,379 378.7,373.4 378.7,371.1 393.6,372.5 								"/>
								<polygon id="XMLID_42958_" class="st6" points="378.7,371.1 379.8,370.9 394.5,371.8 393.6,372.5 								"/>
							</g>
							<path id="XMLID_42956_" class="st6" d="M393.2,378.3c0,1.7,5.2,1.7,5.2,0v-14.8h-5.2V378.3z"/>
							<g id="XMLID_42952_">
								<path id="XMLID_42955_" class="st6" d="M397.1,374.5L400,393h-2l-2.7-18.6C396,374.6,396.6,374.6,397.1,374.5z"/>
								<polygon id="XMLID_42954_" class="st7" points="395.4,374.5 395.4,379.5 398,396.1 398,393 								"/>
								<rect id="XMLID_42953_" x="398" y="393" class="st8" width="2" height="3.1"/>
							</g>
							<g id="XMLID_42948_">
								<polygon id="XMLID_42951_" class="st7" points="394.5,379.4 375.2,389.5 375.2,386.4 394.5,374.5 								"/>
								<path id="XMLID_42950_" class="st6" d="M394.5,374.5c-0.5-0.1-0.9-0.2-1.2-0.6L374,385.6l1.2,0.8L394.5,374.5z"/>
								<polygon id="XMLID_42949_" class="st8" points="375.2,389.5 375.2,386.4 374,385.6 374,388.6 								"/>
							</g>
							<polygon id="XMLID_42947_" class="st7" points="418.8,385.9 398.2,378.9 398.2,374.3 418.8,382.8 							"/>
							<path id="XMLID_42946_" class="st6" d="M398.2,374.3c0.2,0,0.2-0.3,0.2-0.8l20.9,9.1l-0.6,0.2L398.2,374.3z"/>
							<polygon id="XMLID_42945_" class="st8" points="419.4,382.6 419.4,385.6 418.8,385.9 418.8,382.8 							"/>
						</g>
						<path id="XMLID_42943_" class="st11" d="M400.2,337.8h-8.8v30.5c0,2.5,8.8,2.5,8.8,0V337.8z"/>
					</g>
					<g id="XMLID_42938_">
						<path id="XMLID_42941_" class="st5" d="M362,340.5L362,340.5c0-1.6,0.8-3,2.2-3.8l30.8-17.8c1.4-0.8,3-0.8,4.4,0l30.8,17.8
							c1.4,0.8,2.2,2.2,2.2,3.8l0,0l-35.2,20.3L362,340.5z"/>
						<path id="XMLID_42940_" class="st6" d="M362,340.5v2.5l33,19.1c0.7,0.4,1.4,0.6,2.2,0.6c0.8,0,1.5-0.2,2.2-0.6l33-19.1v-2.5
							l-33,19.1c-0.7,0.4-1.4,0.6-2.2,0.6c-0.8,0-1.5-0.2-2.2-0.6L362,340.5z"/>
						<path id="XMLID_42939_" class="st7" d="M362,340.5v2.5l33,19.1c0.7,0.4,1.4,0.6,2.2,0.6v-2.5c-0.8,0-1.5-0.2-2.2-0.6
							L362,340.5z"/>
					</g>
				</g>
				<path id="XMLID_42936_" class="st12" d="M362,340.5c0-0.7,0.2-1.4,0.5-2l33.3,19.2c0.9,0.5,2,0.5,2.9,0l33.3-19.2
					c0.3,0.6,0.5,1.3,0.5,2l-35.2,20.3L362,340.5L362,340.5z"/>
			</g>
		</g>
		<g id="Character_2_">
			<g id="XMLID_1371_">
				<g id="XMLID_1387_">
					<path id="XMLID_1388_" class="st3" d="M421.7,326.6c0,0-28.6-8.6-33.5-10c-5-1.4-14.5-3.6-17.3-2.4s-4.2,2.7-4.5,6.7
						c0,0.8,0,4.4,0,4.4s13.8,4.3,25.1,4.3C402.9,329.7,421.7,326.6,421.7,326.6z"/>
				</g>
				<g id="XMLID_1385_">
					<polygon id="XMLID_1386_" class="st10" points="397.3,278.1 399.2,288.3 409.7,289.5 408.2,275.4 					"/>
				</g>
				<g id="XMLID_14575_">
					<g id="XMLID_1383_">
						<path id="XMLID_1384_" class="st13" d="M387.5,269.9c0,0-1.4,4.2-1,4.5s2.3,0.1,2.3,0.1L387.5,269.9z"/>
					</g>
					<g id="XMLID_1381_">
						<path id="XMLID_1382_" class="st10" d="M390.2,256.4c-1.8,1.9-3.5,5.1-2.8,13.2c0.8,8.8,3.5,11.2,4.6,11.7
							c1.7,0.8,7.3-0.6,9.2-1.9c2.3-1.7,6.6-5.9,7.8-11.1c1.3-6.1-0.4-13.1-4.9-14.5C397.8,251.7,391.7,254.8,390.2,256.4z"/>
					</g>
					<g id="XMLID_14583_">
						<path id="XMLID_1380_" class="st3" d="M386,260.7c1.1,2,3.1,7.1,8.9,8.5c0,0,0.3-3.4,3.2-3.5c2.9,0,3.8,3.5,2.4,5.9
							c-1.4,2.5-3.2,1.9-3.2,1.9s0.3,4.8,3.8,6.5c0,0,4.2,1.9,8-0.5c1.7-1.1,3.7-5.8,4.7-9.6c2.2-8.1,1.8-14.2-3.4-15.5
							c-1.1-3.4-2.8-4.5-6-4.7c-6.9-0.5-11.4,4.7-17.2,4.7C384.2,254.4,384.8,258.4,386,260.7z"/>
					</g>
					<g id="XMLID_1378_">
						<path id="XMLID_1379_" class="st3" d="M410.3,255l3.5-1.5c-0.4-1-1.5-1.4-2.5-1C410.3,252.9,409.9,254,410.3,255z"/>
					</g>
				</g>
				<g id="XMLID_1376_">
					<path id="XMLID_1377_" class="st2" d="M421.6,323.2c0,5.5,0.5,11.2-1.8,15.2c-2.2,3.9-12.6,12.3-24.3,10.3
						c-7.6-1.3-32.3-10.7-32.3-10.7s-10.9-4-11-6.9c0-0.7-0.1-1.4,0-2.2c0.2-3.8,1.8-7.9,9.8-7.7c8.7,0.2,34.6,4.5,34.6,4.5
						L421.6,323.2z"/>
				</g>
				<g id="XMLID_1374_">
					<path id="XMLID_1375_" class="st4" d="M419.6,287.7c-0.9-2.9-4.6-6-8.2-5.3c-6.7,1.2-14,3.4-15.9,4l0,0c0,0,0.9,14.7-6.7,19.2
						l-1,18.8c0,0,1.9,3.7,4.8,5.6c3.1,2,7.5,5,15.3,4.3c9.3-0.8,13.9-7.6,13.9-7.6s-0.1-17.7-0.4-25.7
						C421,294.2,420.2,289.7,419.6,287.7z"/>
				</g>
				<g id="XMLID_1372_">
					<path id="XMLID_1373_" class="st2" d="M388.5,309.2c0,0,4-4.1,5.3-8.9c0,0,0,7-5.4,10.7L388.5,309.2z"/>
				</g>
			</g>
			<g id="XMLID_1357_">
				<g id="XMLID_1362_">
					<path id="XMLID_1363_" class="st10" d="M395.4,286.4c-4.1,1.2-6.6,1.5-11.2,8.5c-4.6,7-14.5,20.9-15.5,22.6
						c-1.4,2.3-2,5.1-0.8,7.2c1.1,2,4.3,1.1,8.9-2.9c4.4-3.8,13-14.7,13-14.7S394.3,297.3,395.4,286.4z"/>
				</g>
				<g id="XMLID_1358_">
					<path id="XMLID_1359_" class="st4" d="M395.4,286.4c0,0-3.7,0.8-6,1.9c-0.7,0.3-3,1.2-4.5,3.7c-3.2,5.3-7.8,12.8-7.8,12.8
						s-0.8,6.6,7.2,8.9l4.2-4.6c1.7-1.9,3.2-4,4.2-6.3C394.7,298.9,396.7,292.6,395.4,286.4z"/>
				</g>
			</g>
			<path id="XMLID_1361_" class="st10" d="M369.3,325.7c-3.8-0.5-12.4-12.2-15.2-15.9s-5.2-5.9-7.8-7.4s-4.8-3.6-5.5-8.1
				c-0.6-4.2,3.2-6.9,6.4-2.6c2,2.7,4.1,4.4,4.2,3.9c0.1-0.5-0.6-2.3-0.6-4.2c0-2.3,1.6-0.8,2.1,0c0.5,0.8,1.1,2.1,1.7,3.9
				c0.8,2.1,0.5,4.2,1.5,5.6c1,1.4,14.3,14.2,14.3,14.2L369.3,325.7z"/>
		</g>
		<g id="XMLID_42855_">
			<polygon id="XMLID_42863_" class="st5" points="434,289.7 434,329 402.8,347.1 402.8,307.8 			"/>
			<polygon id="XMLID_1352_" class="st12" points="434,289.7 434,329 402.8,347.1 402.8,307.8 			"/>
			<path id="XMLID_42862_" class="st5" d="M400,345.5l2.8,1.6c0,0,0-31,0-36c0-1.7,0.5-2.6,1.2-2.9c2.4-1.5,5.5,1.6,5.5,1.6l0-2.6
				l30.2-17.5c-2.8-1.6-4.7-2.7-10.4,0.5c-5.7,3.2-22.5,13-25.2,14.6c-2.1,1.3-4.1,2.9-4.1,6.4C400,317.4,400,345.5,400,345.5z"/>
			<path id="XMLID_42861_" class="st14" d="M404.1,304.8c2.6-1.7,19.5-11.4,25.2-14.6c5.7-3.2,7.6-2.2,10.4-0.5l-30.2,17.5
				C408.5,306,406.5,304.8,404.1,304.8z"/>
			<polygon id="XMLID_42860_" class="st5" points="409.5,309.8 439.7,292.2 439.7,289.7 409.6,307.2 			"/>
			<polygon id="XMLID_1364_" class="st15" points="409.5,309.8 439.7,292.2 439.7,289.7 409.6,307.2 			"/>
			<g id="XMLID_42858_">
				<path id="XMLID_42859_" class="st16" d="M410,359.6c0.5,0,0.9-0.1,1.4-0.4c0.9-0.5,1.4-1.4,1.4-2.4v-20.6c0-0.8-0.6-1.4-1.4-1.4
					s-1.4,0.6-1.4,1.4v20.5l-2.2-1.3c-0.7-0.4-1.5-0.2-1.9,0.5s-0.2,1.5,0.5,1.9l2.3,1.3C409.1,359.5,409.5,359.6,410,359.6z"/>
			</g>
			<g id="XMLID_42856_">
				<path id="XMLID_42857_" class="st16" d="M427.1,349.7c0.5,0,0.9-0.1,1.4-0.4c0.9-0.5,1.4-1.4,1.4-2.4v-20.6
					c0-0.8-0.6-1.4-1.4-1.4s-1.4,0.6-1.4,1.4v20.5l-2.2-1.3c-0.7-0.4-1.5-0.2-1.9,0.5s-0.2,1.5,0.5,1.9l2.3,1.3
					C426.1,349.6,426.6,349.7,427.1,349.7z"/>
			</g>
		</g>
	</g>
</g>
</svg>
